<svg xmlns="http://www.w3.org/2000/svg" fill-rule="evenodd" stroke-linecap="round" stroke-linejoin="round" stroke-miterlimit="1.5" clip-rule="evenodd" viewBox="0 0 202 232" width="202" height="232"><g stroke="#fff" stroke-width=".9"><path fill="#b0b0b0" d="M187.95 65.026s-4-7.448-6.34-10.861c-4-5.852-8.03-11.736-12.77-17.012-7.59-8.457-17.21-17.637-28.15-21.158-17.8-5.727-36.55-6.775-53.06-1.219-21.3 7.168-42.65 23.841-55.396 43.457-15.214 23.414-23.168 57.371-14.94 83.027 4.761 14.846 18.652 33.536 28.296 45.673 19.75 24.839 36.58 32.545 39.97 37.895.26.416.51 1.386.6 1.889 0 0 .31-22.027-8.23-34.926-11.43-17.253-23-14.981-23-14.981s8.57-3.798 2.58-18.525c-3.7-9.09-13.9-11.877-13.9-11.877s8.8-7.923 8.76-20.661c-.04-15.278-12.459-26.244-12.459-26.244s13.459-.891 23.639-14.181c6.88-8.994 6.23-29.659 6.23-29.659s16.17.04 23.71-2.694c15.09-5.471 19.24-18.64 19.24-18.64 9.03 11.259 15.07 17.047 21.47 17.046 6.38-.001 14.07-5.85 19.97-12.734 0 0 .4 10.606 12.73 19.162 6.6 4.58 21.05 7.223 21.05 7.223z"/><path fill="#8e8e8e" d="M74.51 228.422c-21.02-13.026-38.237-26.619-54.589-49.435C-15.8 129.146-.528 55.089 50.66 19.695 80.06-.637 122.73-7.443 154.45 12.03c9.66 5.926 19.36 15.249 26.59 23.864 10.46 12.462 15.36 24.39 18.92 40.32 1.11 4.969 1.43 13.36-1.04 18.23-7.01 13.833-26.17 9.007-31.7-2.953-2.81-6.079-3.05-15.44 1.81-20.815 2.76-3.053 7.21-4.078 11-4.697 2.66-.432 5.36-.581 8.04-.729-2.01-3.77-4.04-7.556-6.46-11.085-4-5.852-8.03-11.736-12.77-17.012-7.59-8.457-17.21-17.637-28.15-21.158-17.8-5.727-36.55-6.775-53.06-1.219-21.3 7.168-42.65 23.841-55.396 43.457-15.214 23.414-23.168 57.371-14.94 83.027 4.761 14.846 18.652 33.536 28.296 45.673 19.75 24.839 36.58 32.545 39.97 37.895 1.99 3.151-.85 9.918-11.05 3.594z"/></g></svg>