<svg xmlns="http://www.w3.org/2000/svg" fill-rule="evenodd" stroke-linecap="round" stroke-linejoin="round" stroke-miterlimit="1.5" clip-rule="evenodd" viewBox="0 0 189 230" width="189" height="230"><g stroke="#fff" stroke-width=".9"><path fill="#8e8e8e" d="M98.31 220.469c-29.26-6.305-54.96-50.904-58.87-80.306-3.58-26.922 4.53-56.748 21.11-75.319 24.59-27.549 71.81-27.939 92.19-10.588 10.78 9.178 15.13 23.938 15.13 23.938s-5.35-7.014-8.59 1.787c-2.84 7.704 3.33 12.797 6.54 13.175 7.77.915 11.07-2.022 11.61-6.612.58-5.009-2.31-14.684-6.96-23.288-5.25-9.702-14.32-25.284-41.14-31.064-16.75-3.613-57.46-6.544-84.17 28.428-20.03 26.207-22.22 47.561-21.55 75.789.68 28.381 31.89 88.125 69.4 92.588 1.85.221 5.03-4.93 5.3-8.528z"/><path fill="#b0b0b0" d="M175.5 74.92c-1.22-3.76-2.95-7.819-5.03-11.664-5.25-9.702-14.32-25.284-41.14-31.064-16.75-3.613-57.46-6.544-84.17 28.428-20.03 26.207-22.22 47.561-21.55 75.789.56 23.443 21.96 68.287 50.52 85.696 0 0-28.49-1.989-43.01-7.855-16.68-6.738-23.86-26.657-23.86-26.657 5.32-5.901 10.4-10.179 18.25-12.625 0 0-9.67-5.421-12.61-14.527-2.11-6.535 3.03-12.166 3.03-12.166s-13.59-7.102-14.87-15.289c-1.64-10.524 3.33-15.586 4.02-26.514C6.1 90.309.45 74.285.45 74.285c14.65-.406 15.7 2.26 20.73 6.639 0 0-2.96-6.96-1.1-9.791 2.38-3.596 9.77.543 9.77.543s-8.26-17.826-.03-24.471c4.37-3.53 14.2-9.324 19.29-14.568 5.25-5.413 10.12-21.246 10.12-21.246s5.94 11.143 7.58 20.72c0 0 1.44-8.753 8.35-8.819 3.18-.03 4.2 6.836 4.2 6.836s3.36-9.04 11.96-11.368c8.33-2.254 9.45 1.702 18.15.051C123.73 16.104 134.04.45 134.04.45c-.05 7.41-1.46 15.03-5.04 22.01 0 0 8.47-1.616 11.75.123 2.37 1.259 2.95 5.918 2.95 5.918s6.91-1.642 10.21.181c4.77 2.63 8.74 8.033 15.56 10.678 8.55 3.32 16.95 2.503 18.66 2.434-.31 10.611-5.66 13.405-19.08 12.385 8.34 7.373 13.51 15.719 6.45 20.741"/></g></svg>