<?xml version="1.0" encoding="UTF-8"?>
<svg width="57px" height="116px" viewBox="0 0 57 116" version="1.1" xmlns="http://www.w3.org/2000/svg" xmlns:xlink="http://www.w3.org/1999/xlink">
    <title>Path 19</title>
    <g id="Page-1" stroke="none" stroke-width="1" fill="none" fill-rule="evenodd">
        <g id="Artboard-1" transform="translate(-51.000000, -274.000000)" fill="#8E8E8E" stroke="#8E8E8E">
            <path d="M85.5,384.729127 L87.5,388.732848 C91.1353057,386.45749 94.0194323,384.252185 96.1523798,382.116935 C98.2853274,379.981685 100.874919,376.640641 103.921155,372.093803 C105.687727,367.026897 106.571013,363.308767 106.571013,360.939412 C106.571013,358.570057 105.687727,354.975608 103.921155,350.156065 C102.751037,346.677494 101.003717,343.838037 98.6791935,341.637695 C96.35467,339.437353 92.5751653,336.540149 87.3406793,332.946084 C84.2573374,330.148974 82.0202006,326.593647 80.6292691,322.280105 C79.2383376,317.966563 78.7520373,311.896692 79.1703683,304.070493 C80.9590101,307.456783 82.4022207,309.674655 83.5,310.724111 C84.5977793,311.773566 85.8780058,312.532196 87.3406793,313 L85.5,307.111574 C88.3824334,309.899617 90.6747375,311.498611 92.3769122,311.908555 C94.079087,312.3185 96.7867829,311.923685 100.5,310.724111 C97.6058059,306.516016 95.4748304,303.759585 94.1070733,302.45482 C92.7393162,301.150054 91.2036251,300.408684 89.5,300.230711 C90.6659943,300.571109 91.624965,300.571109 92.3769122,300.230711 C93.1288594,299.890313 94.0240553,299.050952 95.0625,297.712629 C92.5717684,296.814447 90.7176017,296.365356 89.5,296.365356 C88.2823983,296.365356 86.6316884,296.814447 84.5478705,297.712629 C87.575145,295.805633 89.8770042,294.188736 91.4534482,292.861938 C93.0298921,291.53514 94.2329094,289.908218 95.0625,287.98117 C93.9657473,287.384896 93.0705513,287.001176 92.3769122,286.830009 C91.6832731,286.658841 91.0234765,286.658841 90.3975226,286.830009 C91.4284914,283.871499 92.088288,281.465637 92.3769122,279.612424 C92.6655364,277.759211 92.6655364,276.2729 92.3769122,275.15349 C89.484589,275.22718 87.472764,275.579721 86.3414374,276.211113 C85.2101107,276.842506 83.6796316,278.3096 81.75,280.612397 C81.5375481,278.964256 81.1639711,277.815864 80.6292691,277.167222 C80.0945671,276.51858 78.968144,275.847336 77.25,275.15349 C75.6562512,278.369707 74.8216995,280.681758 74.7463447,282.089643 C74.6471951,283.942099 74.6471951,287.036635 74.7463447,291.373251 C70.9442399,289.754749 68.3037982,288.624055 66.8250194,287.98117 C65.3462407,287.338285 63.8289505,287.338285 62.2731489,287.98117 C62.6296912,289.602866 62.9860073,290.733559 63.3420972,291.373251 C63.698187,292.012942 64.2475115,292.509171 64.9900706,292.861938 C61.518007,291.86948 58.9422094,291.373251 57.2626777,291.373251 C55.5831461,291.373251 53.7521613,291.86948 51.7697234,292.861938 L60.0437422,300.230711 L57.2626777,302.45482 C61.5955595,304.451048 64.7830068,305.350657 66.8250194,305.153645 C68.867032,304.956633 71.5074738,304.057025 74.7463447,302.45482 C74.1918103,309.518382 74.1918103,314.531413 74.7463447,317.493912 C75.3008791,320.456411 76.3854309,323.995415 78,328.110924 C80.2961108,331.345166 82.1294441,333.630075 83.5,334.965651 C84.8705559,336.301228 86.8705559,337.751818 89.5,339.317421 C91.8012204,340.903729 93.6553871,342.317698 95.0625,343.559329 C96.4696129,344.80096 98.2821129,346.999872 100.5,350.156065 C102.123275,354.994581 102.934913,358.58903 102.934913,360.939412 C102.934913,363.289794 102.123275,366.693787 100.5,371.15139 C97.0931091,375.98937 94.3854132,379.228753 92.3769122,380.869537 C90.3684113,382.510321 88.0761072,383.796851 85.5,384.729127 Z" id="Path-19"></path>
        </g>
    </g>
</svg>