<svg xmlns="http://www.w3.org/2000/svg" fill-rule="evenodd" stroke-linecap="round" stroke-linejoin="round" stroke-miterlimit="1.5" clip-rule="evenodd" viewBox="0 0 115 232" width="115" height="232"><g stroke="#fff" stroke-width=".9"><path fill="#8e8e8e" d="M52.44 63.485c3.28-.917 6.73-1.51 10.32-1.74 18.63-1.189 34.74 7.3 46.82 25.609 4.49 6.816 3.96 22.704-5.41 26.756-5.86 2.531-14.32-2.818-16.98-8.566-8.87-19.207 8.64-20.212 8.64-20.212S79.96 66.365 59.87 72.01c-31.75 8.919-54.47 53.194-43.19 96.766 7 27.021 48.01 59.374 48.01 59.374-2.5 2.764-6.14 3.895-8.78 2.497-19.92-10.576-41.78-30.79-50.63-55.838-2.19-6.199-3.41-13.554-3.65-21.493C.56 118.769 17.8 73.151 52.44 63.485"/><path fill="#b0b0b0" d="M52.4 63.497s7.43-8.93 14.04-13.422c11.86-8.045 24.96-7.176 36-16.836C122.67 15.54 111.38.445 111.38.445s-5.34 10.145-21.19 20.316c-20.35 13.065-51.33 18.35-72.94 56.878-23.19 41.368-15.62 75.705-15.62 75.705C.55 118.807 17.78 73.19 52.4 63.497z"/><path fill="#cbcbcb" d="M89.62 40.581c-7.67 2.881-15.67 4.402-23.18 9.494-6.61 4.492-14.06 13.426-14.06 13.426 3.35-.948 6.72-1.522 10.38-1.756 10.8-.689 20.76 1.876 29.57 7.725 0 0 8.29.87 8.94-3.134.8-4.945-8.36-8.159-8.36-8.159s9.49-.075 8.15-5.823c-.55-2.361-6.44-2.034-6.44-2.034s4.44-2.769 3.57-6.539c-.8-3.493-8.57-3.2-8.57-3.2z"/></g></svg>