<svg xmlns="http://www.w3.org/2000/svg" fill-rule="evenodd" stroke-linecap="round" stroke-linejoin="round" stroke-miterlimit="1.5" clip-rule="evenodd" viewBox="0 0 153 202" width="153" height="202"><path fill="#8e8e8e" stroke="#fff" stroke-width=".9" d="M54.643 198.538c-7.582 6.188-13.111 1.541-22.607-8.379-15.715-16.417-19.717-26.303-25.821-45.254C-10.872 91.862 9.897 12.17 70.278 1.907c36.756-6.248 64.738 7.932 78.655 36.812 6.962 14.446 2.383 27.957-10.993 30.11-11.722 1.887-26.368-4.229-30.166-20.839-2.233-9.765 9.568-15.335 18.725-12.426 10.412 3.308 7.681 13.414 1.88 17.566-3.466 2.481 1.391 5.962 3.799 6.923 21.396 8.543 9.025-26.05-3.453-36.68C101.096-.163 42.158 7.281 20.497 59.32c-11.37 27.316-13.868 75.887 3.936 105.025 20.519 33.583 35.025 30.263 30.21 34.193z"/></svg>