<svg xmlns="http://www.w3.org/2000/svg" fill-rule="evenodd" stroke-linecap="round" stroke-linejoin="round" stroke-miterlimit="1.5" clip-rule="evenodd" viewBox="0 0 150 173" width="150" height="173"><g stroke="#fff"><path fill="#8e8e8e" d="M12.815 10.198c9.084 13.384 10.344 27.024 13.696 50.314 3.826 26.582 9.666 42.872 19.016 61.484 9.408 18.726 16.191 26.361 27.152 34.243 7.71 5.545 15.809 11.601 29.611 14.033 9.965 1.755 23.304 1.247 23.304 1.247s-29.039-16.855-35.006-45.549c-4.247-20.427 9.362-43.908 20.428-57.042 18.14-21.53 38.089-33.699 38.089-33.699s-5.251-3.724-21.161-3.489c-16.144.24-31.052 1.442-42.639 15.81-9.406 11.664-9.233 21.796-9.233 21.796s-4.607-24.657-14.438-37.541C52.228 19.478 44.29 12.401 30.823 5.799 17.486-.738.5.612.5.612s9.364 5.237 12.315 9.586z"/><path fill="none" d="M27.327 20.159s2.982 9.373 2.788 19.408c-.188 9.792-3.995 17.159-3.995 17.159m17.859-22.531s-.184 13-6.221 28.98c-5.308 14.051-4.119 29.97-4.119 29.97M52.625 63.67s-3.485 10.317-4.5 15.648c-1.233 6.474-2.511 16.141-2.895 23.197-.346 6.373.812 20.333.812 20.333m18.545-35.025s-3.085 12.12-3.833 18.31c-.749 6.204-1.041 13.034-.665 18.91.354 5.523 1.64 11.849 2.921 16.344 1.065 3.734 4.769 10.626 4.769 10.626"/><path fill="none" stroke-width=".9" d="M100.801 57.291S93.26 65.547 90.2 70.504c-3.54 5.734-7.923 13.471-10.489 20.629-2.567 7.159-4.335 14.725-4.909 22.321-.574 7.606.462 16.888 1.461 23.314.815 5.239 2.047 9.614 4.254 14.435 2.148 4.694 11.759 15.945 11.759 15.945"/></g></svg>