<svg xmlns="http://www.w3.org/2000/svg" fill-rule="evenodd" stroke-linecap="round" stroke-linejoin="round" stroke-miterlimit="1.5" clip-rule="evenodd" viewBox="0 0 197 210" width="197" height="210"><path fill="#8e8e8e" stroke="#fff" stroke-width=".9" d="M87.64 208.914c-7.73-2.452-43.66-19.565-66.16-45.864-17.43-20.373-28.2-53.07-15.44-92.763C14.46 44.11 38.71 17.145 64.11 7.154c25.39-9.99 67.81-8.717 94.29 3.191 37.72 16.962 37.41 54.476 37.2 59.292-.52 12.426-10.52 17.503-16.7 17.984-16.09 1.254-19.38-11.075-19-16.706 1.53-22.427 22.33-17.23 26.56-14.707.63-10.773-14.73-30.793-43.93-38.181-22.92-5.8-52.25-6.742-72.67 3.618-23.35 11.852-46.53 34.373-53.89 61.293-5.28 19.315-7.82 41.941 14.84 72.553 14.58 19.696 39.36 36.275 64.25 44.651 3.07 1.032-3.75 9.937-7.42 8.772z"/><path fill="#b0b0b0" stroke="#fff" stroke-width=".9" d="M162.5 25.99c-5.69-3.254-12.36-6.038-19.97-7.963-22.92-5.8-52.25-6.742-72.67 3.618-23.35 11.852-46.53 34.373-53.89 61.293-5.28 19.315-7.82 41.941 14.84 72.553 14.58 19.696 39.36 36.275 64.25 44.651-8.3-3.352-28.97-19.687-35.19-37.376-4.05-11.521 1.06-24.057 10.69-26.55 5.31-1.374 15.36-1.055 15.36-1.055-5.65-7.835-26.44-17.167-37.64-8.359-5.36 4.222-13.51 8.235-13.51 8.235s6.69-5.815 5.7-9.747c-1.97-7.84-14.05-10.998-14.05-10.998s8.87-2.066 10.79-5.641c5.79-10.77.39-24.343 8.35-34.852 8.5-11.23 25.3-8.152 25.3-8.152-6.2-7.874-15.3-10.268-26.69-11.527 0 0 14.25.506 17.46-3.739 3.44-4.554-.35-12.367-.35-12.367s11.12 9.584 32.8 8.4c9.3-.508 38.9-2.681 43.71-.262-6.99-10.401-12.99-15.649-25.75-18.594 0 0 16.49 2.277 28.2 2.131 12.15-.151 22.26-3.699 22.26-3.699z"/><path fill="none" stroke="#fff" stroke-width=".9" d="M49.773 174.915c-.44-9.199-4.24-26.575 3.84-31.045M35.83 161.545c-1.28-6.41-2.93-15.715 1.29-20.619m-24.24-40.818c2.11-.399 12.33-1.678 17.34-16.617 4.79-14.286 15.49-16.127 15.49-16.127m21.23-44.157s12.72-.147 18.67 1.796c6.4 2.095 11.25 7.571 19.74 10.77 3.68 1.385 7.76 1.236 7.76 1.236"/></svg>