<svg xmlns="http://www.w3.org/2000/svg" fill-rule="evenodd" stroke-linecap="round" stroke-linejoin="round" stroke-miterlimit="1.5" clip-rule="evenodd" viewBox="0 0 127 244" width="127" height="244"><path fill="#8e8e8e" stroke="#fff" stroke-width=".9" d="M58.52 242.647c-12.94.532-33.19-14.549-40.26-34.151C9.23 183.465.45 175.228.45 175.228c9.54-10.628 21.65-16.341 36.09-12.357 0 0-12.55-11.323-17.32-25.857-4.42-13.466 4.7-24.713-13.99-41.35 3.5-6.492 12.55-8.826 25.66-8.121-10-7.06-13.95-62.561 12.87-87.089 0 0 3.82 24.512 16.01 34.201 11.42 9.069 19.28 14.639 18.8 46.419 1.78-10.625 15.67-18.495 28.19-7.929-9.55 18.994 3.63 25.889 5.74 42.808 2.98 23.8-19.97 49.922-19.97 49.922 7.37-9.106 19.46-9.215 33.42-2.139 0 0-22.53 14.262-29.73 31.97-8.38 20.621-21.95 46.295-37.7 46.941z"/><path fill="#b0b0b0" d="M50.27 241.26c2.98 1.038 5.68 1.493 8.25 1.387a14.6 14.6 0 0 0 2.45-.305c-1.29-6.275-1.61-25.273.59-35.239 3.91-17.686 13.64-32.291 14.87-50.699 1-14.988.86-32.275-6.55-45.861-9.13-16.749-21.83-31.788-22.87-51.927-4.01 11.185 4.97 35.49 11.39 45.248 10.74 16.324 11.68 28.701 10.69 48.605-1.11 22.431-13.49 35.45-18.36 62.129-.91 4.98-2.66 16.587-.46 26.662z"/><path fill="none" stroke="#fff" stroke-width=".9" d="M49.42 224.416c-6.17-10.447-15.73-18.907-26.86-25.877m28.61 13.533c-4.21-9.727-15.95-20.945-26.62-27.13m8.35-13.362c7.93 3.93 15.15 11.899 21.47 28.294m11.38-30.161c-4.33-6.989-13.72-18.027-22.53-26.58m16.37 43.034c-2.62-7.781-10.45-16.728-15.54-20.001m23.92-5.184c-8.46-21.688-18.72-30.384-28.96-36.212m30.36 18.86c-11.22-20.463-18.07-29.922-30.38-35.992m28.89 18.088c-5.9-11.077-21.54-27.538-31.18-31.83m19.83 6.84c-9.19-15.074-18.49-27.495-27.65-36.017m17.72 7.824c-3.37-8.849-8.21-20.827-11.41-25.422m19.81.491c-1.9 11.059-2.43 22.455-1.56 34.2m7.03 12.635c.03-12.759 1.56-21.59 4.19-27.531m1.32 36.695c.31-10.285 1.96-18.611 5.47-23.995M75.4 91.67c-2.68 3.456-4.27 10.376-4.48 20.897m22.84-31.871c-9.42 8.128-14.88 24.449-19.03 42.798m15.41-18.215c-5.59 4.318-10.21 13.012-14.52 22.301m20.6-6.8c-6.98 3.453-12.8 9.892-19.37 20.753m20.42-11.269c-7.88 3.519-14.51 12.711-20.52 22.02m16.81-2.224c-6.84 3.078-13.49 8.257-18.6 16.364m11.26 3.835c-7.26 4.73-14.46 11.286-18.35 17.338m37.92-15.536c-12.98 5.91-32.54 20.967-44.76 38.033m31.85-17.361c-14.4 7.112-23.87 18.326-32.77 30.016m16.69-5.937c-5.48 2.635-10.99 6.56-16.57 14.175"/></svg>