<svg xmlns="http://www.w3.org/2000/svg" fill-rule="evenodd" stroke-linecap="round" stroke-linejoin="round" stroke-miterlimit="1.5" clip-rule="evenodd" viewBox="0 0 122 215" width="122" height="215"><g stroke="#fff" stroke-width=".9"><path fill="#b6b4b4" d="M34.394 154.8s-2.262-26.566 2.872-43.671c2.754-9.172 7.308-16.519 14.279-21.924 3.947-3.06 12.703-3.617 16.361 2.511 3.715 6.223-5.436 15.469-5.436 15.469s19.646-.232 22.205-16.072c1.664-10.298-8.568-16.152-8.568-16.152s11.057.029 21.107-6.096c8.98-5.472 11.695-9.392 15.906-17.307 4.241-7.971 8.023-23.362 8.023-23.362s-9.489-.743-17.778.952c-5.069 1.037-14.875 3.937-24.88 12.621-8.488 7.368-11.308 16.451-11.308 16.451s-12.055-4.992-21.309-.562C38.727 61.077 32.069 67.45 25.2 78.589c-5.819 9.434-12.115 28.724-12.115 28.724 1.372 16.898 10.012 33.127 21.309 47.487z"/><path fill="#8e8e8e" d="M88.505 213.92s-33.08-14.25-62.968-47.61C9.071 147.93-.981 121.222.616 96.597c3.317-51.145 37.879-79.87 56.177-89.765C73.894-2.415 86.446-.11 90.908 4.365c7.717 7.739 8.373 16.324 6.026 20.67-2.436 4.513-9.907 6.408-14.385 5.503-9.02-1.823-11.599-16.739-11.599-16.739S16.966 35.528 13.002 99.18c-3.621 58.14 85.467 110.68 85.467 110.68l-9.964 4.06z"/></g></svg>