<svg xmlns="http://www.w3.org/2000/svg" fill-rule="evenodd" stroke-linecap="round" stroke-linejoin="round" stroke-miterlimit="1.5" clip-rule="evenodd" viewBox="0 0 222 240" width="222" height="240"><path fill="#b0b0b0" stroke="#fff" stroke-width=".9" d="M90.868 235.838c-7.582 6.188-13.111 1.541-22.607-8.379-15.715-16.417-19.717-26.303-25.821-45.254-17.087-53.043 3.682-132.735 64.063-142.998 36.756-6.248 64.738 7.932 78.655 36.812 6.962 14.446 2.383 27.957-10.993 30.11-11.722 1.887-26.368-4.229-30.166-20.839-2.233-9.765 9.568-15.335 18.725-12.426 10.412 3.308 7.681 13.414 1.88 17.566-3.466 2.481 1.391 5.962 3.799 6.923 21.396 8.543 9.025-26.05-3.453-36.68C137.321 37.137 78.383 44.581 56.722 96.62c-11.37 27.316-13.868 75.887 3.936 105.025 20.519 33.583 35.025 30.263 30.21 34.193z"/><path fill="#8e8e8e" d="M70.908 230.182s-1.661-1.693-2.647-2.723c-15.715-16.417-19.717-26.303-25.821-45.254-17.087-53.043 3.682-132.735 64.063-142.998 12.311-2.093 23.638-1.894 33.782.382 2.673-1.935 13.739-2.271 17.223-1.098 9.571 3.224 6.614 10.009 24.112 13.789 13.592 2.937 38.767-16.765 39.791-21.438 0 0-10.399 5.535-20.567-.08-9.669-5.34-14.331-14.833-24.614-18.87-13.321-5.231-29.566-.365-29.566-.365C152.547-.788 136.02-5.931 101.17 9.85c-15.408 6.977-32.167 24.927-32.167 24.927-.977-2.753-3.258-24.752-17.756-18.012-17.352 8.067-26.72 29.053-29.839 48.018-2.312 14.062.783 26.871 1.062 27.868-15.479-5.807-37.982 10.884-6.917 73.198 11.457 22.983 42.236 57.708 55.355 64.333z"/><path fill="none" stroke="#fff" stroke-width=".9" d="M10.903 111.016c4.289 13.239 10.436 16.938 14.658 25.506 12.676 25.715 7.084 33.983 18.35 50.312m-19.135-85.893c2.767 3.399 6.406 8.871 8.459 12.743 2.198 4.146 3.854 10.782 3.963 17.473m11.027-87.393c.982 6.683 1.315 15.483.99 22.23-.471 9.795-1.647 18.068-3.421 27.713M65.708 38.79c1.638 9.723-1.653 20.271-4.881 28.148m55.779-48.096c-4.661-.277-9.357 2.8-12.163 5.866-6.359 6.948-8.603 11.369-11.705 18.182m39.984-21.597c1.154 3.313-2.053 7.742-4.595 10.1-2.984 2.769-5.326 5.319-9.483 6.442m42.737-19.017c-4.536 4.945-7.912 10.023-16.162 14.479-5.138 2.775-16.349 4.216-20.654 4.442"/></svg>