<svg xmlns="http://www.w3.org/2000/svg" fill-rule="evenodd" stroke-linecap="round" stroke-linejoin="round" stroke-miterlimit="1.5" clip-rule="evenodd" viewBox="0 0 140 224" width="140" height="224"><g stroke="#fff" stroke-width=".9"><path fill="#8e8e8e" d="M25.81 223.321s-40.32-30.035-19.28-86.042C23.37 92.42 71.71 78.946 102.57 32.748 118.25 9.273 118.5.448 118.5.448s20.81 31.207 20.65 69.881c-.14 35.907-11.73 59.897-20.09 77.036-9.11 18.667-28.72 39.625-47.85 53.118-24.59 17.352-45.4 22.838-45.4 22.838z"/><path fill="none" d="M26.41 223.321s-1.58-39.36 13.13-65.448c14.18-25.158 40.95-32 67.51-73.898 8.48-13.37 7.89-46.837 7.89-46.837"/><path fill="none" d="M27.25 202.414s-.16-14.875-3.42-24.54c-3.1-9.207-11.7-18.544-11.7-18.544m10.54-25.726c8.98 11.348 11.91 25.551 9.6 41.942m4.81-53.271c3.27 11.046 2.99 27.124 1.09 38.142m12.68-17.33c2.6-11.345 3.23-26.296.96-37.911m13.5 24.874c.79-3.001 1.64-7.537 2.3-11.627 1.48-9.221 2.37-21.069 1.48-28.908m9.07 29.246c3.71-9.025 8.21-21.487 7.4-37.379m7.47 21.811c2.4-13.286 2.9-29.996 1.59-44.011m15.89 16.923c-1.22-10.015-5.32-21.049-8.74-27.743m3.88 37.788c16.56-7.28 19.48-24.581 19.96-35.82M97.4 97.764c16.19-1.378 24.58-3.918 29.79-16.382m-43.01 31.523c10.28 1.825 18.61-.098 25.26-8.528m-38.26 20.642c16.47 2.414 30.63.589 41.76-8.465m-57.65 22.235c8.57 1.618 31.25 1.516 39.52-4.534M35.5 166.279c4.95-5.062 15.02-13.734 20.82-15.394 7.09-2.031 15.41-.659 22.44-1.587 5.54-.732 8.53-1.662 11.54-4.821m-60.81 42.512c6.97-6.423 14.81-11.424 24.99-14.662 10.05-3.199 19.7-8.843 25.47-12.923m-52.88 44.893c5.38-6.991 16.07-14.129 21.09-15.534 12.81-3.59 21.08.381 36.47-8.929"/></g></svg>