<svg xmlns="http://www.w3.org/2000/svg" fill-rule="evenodd" stroke-linecap="round" stroke-linejoin="round" stroke-miterlimit="1.5" clip-rule="evenodd" viewBox="0 0 162 211" width="162" height="211"><path fill="#8e8e8e" stroke="#fff" stroke-width=".9" d="M121.685 26.093s-11.17-8.419-17.451-10.818C99.509 13.47 91.457 10.658 84.39 10.6c-8.036-.066-13.882.063-22.96 2.943-8.968 2.846-19.717 8.06-29.712 18.188-7.211 7.308-14.832 22.299-17.704 32.157-3.399 11.67-4.158 25.852-2.928 40.055 1.23 14.203 7.913 36.491 14.625 47.689 16.23 27.08 34.099 38.171 40.841 43.374 6.77 5.224 15.947 10.212 15.947 10.212-1.052 5.137-6.719 4.871-8.827 4.955-3.932.158-7.54-1.745-9.504-3.363-7.76-6.391-26.725-22.103-36.157-33.282-11.266-13.354-17.986-26.35-22.061-40.526C1.149 116.296.133 99.244.528 84.403c.49-18.45 3.627-34.605 15.726-50.781 9.993-13.359 17.484-19.52 33.413-26.961 16.781-7.839 43.119-7.657 55.379-2.774 13.854 5.519 22.261 15.691 22.261 15.691s2.157-3.109 4.967-4.769c2.922-1.725 5.632-1.152 6.952-.155 3.243 2.449 5.643 5.39 8.65 9.534 2.654 3.657 3.699 5.423 6.097 10.476 2.715 5.72 1.115 11.413 2.836 18.241 1.124 4.463 4.394 10.425 4.394 10.425s-9.267-8.569-14.408-10.742c-4.812-2.034-11.751-.9-16.614-2.678-4.863-1.778-8.138-3.527-11.949-7.769-3.534-3.933-3.582-7.803-2.844-10.224.739-2.421 6.297-5.744 6.297-5.744v-.08z"/></svg>