<svg xmlns="http://www.w3.org/2000/svg" fill-rule="evenodd" stroke-linecap="round" stroke-linejoin="round" stroke-miterlimit="1.5" clip-rule="evenodd" viewBox="0 0 207 209" width="207" height="209"><g stroke="#fff" stroke-width=".9"><path fill="#8e8e8e" d="M158.444 60.627s-.084 28.461 9.599 68.281c6.085 25.026 28.415 28.884 35.328 47.365 7.04 18.82-4.214 32.238-4.214 32.238s2.419-14.579-2.901-20.907c-11.554-13.743-29.894-24.451-36.939-34.961-5.376-8.019-8.978-21.448-9.032-31.102-.084-14.758 8.159-60.914 8.159-60.914"/><path fill="#a2a2a2" d="M158.444 60.627s-15.159 29.066-19.004 43.655c-3.75 14.227-7.176 29.725-4.759 43.88 2.416 14.156 14.991 31.012 18.73 39.909 1.644 3.912 3.706 13.474 3.706 13.474s6.486-11.47 5.78-25.098c-.642-12.393-7.239-30.66-7.239-30.66-3.291-7.617-5.332-16.996-5.373-24.246-.084-14.758 8.159-60.914 8.159-60.914z"/><path fill="#adadad" d="M158.444 60.627s-15.159 29.066-19.004 43.655c-3.75 14.227-7.176 29.725-4.759 43.88.655 3.838 2.056 7.874 3.826 11.896 0 0-.908 13.408-1.865 19.379-.891 5.56-3.877 16.444-3.877 16.444s.327-5.423-2.702-15.392c-2.659-8.753-13.82-25.521-14.344-38.678-.85-21.354 5.512-32.061 15.015-47.558 11.982-19.541 27.71-33.626 27.71-33.626z"/><path fill="#b6b4b4" d="M158.444 60.627s-16.169 2.615-31.08 14.454c-12.493 9.918-21.653 21.517-27.591 30.84-5.819 9.138-8.606 20.407-9.121 31.37-.415 8.824 1.589 18.026 5.05 27.034 3.114 8.106 7.66 16.216 7.66 16.216s2.953-4.093 3.854-9.196c3.12-17.658-1.105-23.128 2.185-41.956 1.385-7.924 5.374-14.422 9.405-20.917 4.617-7.437 18.295-23.706 18.295-23.706 10.527-14.452 21.343-24.139 21.343-24.139z"/><path fill="#b6b4b4" d="M102.754 101.455s-17.893 16.98-21.023 37.347c-3.45 22.448-36.398 37.103-36.398 37.103s7.58-8.146 12.8-19.899c9.828-22.126 3.62-24.835 13.752-44.541 6.178-12.018 15.661-22.332 25.653-29.993 9.993-7.661 22.401-11.865 34.301-15.974 11.295-3.9 26.605-4.871 26.605-4.871s-16.169 2.615-31.08 14.454c-10.564 8.387-18.745 17.975-24.61 26.374z"/><path fill="#bebebe" d="M158.444 60.627s-9.333-5.5-19.01-6.513c-12.469-1.306-26.358-1.68-37.278-.108-11.721 1.687-20.75 4.941-32.992 15.619-11.29 9.848-15.763 16.317-18.355 22.819-3.243 8.131-3.718 18.345-7.212 26.117-3.375 7.509-13.751 20.516-13.751 20.516s23.068-6.955 34.06-28.284c7.012-13.607 18.478-24.419 25.635-30.228 19.217-15.597 51.423-17.516 51.423-17.516 8.996-1.884 17.48-2.422 17.48-2.422z"/><path fill="#cbcbcb" d="M158.444 60.627s-9.333-5.5-19.01-6.513c-12.469-1.306-26.358-1.68-37.278-.108-11.532 1.66-20.457 4.836-32.399 15.106 0 0-3.846 3.327-19.306 15.842C32.331 99.624.45 90.35.45 90.35s14.146-3.761 25.585-13.262c13.84-11.496 32.717-37.443 50.923-41.675 17.736-4.124 45.646 6.921 58.592 12.479 11.42 4.903 22.894 12.735 22.894 12.735z"/><path fill="#d2d2d2" d="M158.444 60.627s-23.927-22.138-38.425-30.706c-15.513-9.168-34.902-15.069-56.534-12.974-13.762 1.332-24.025 18.8-34.445 23.107C20.351 43.645.965 42.788.965 42.788s14.385 8.664 22.34 10.644c7.954 1.979 25.389 1.231 25.389 1.231 9.062-8.905 18.755-17.039 28.264-19.25 17.736-4.124 45.646 6.921 58.592 12.479 11.42 4.903 22.894 12.735 22.894 12.735z"/><path fill="#dedede" d="M158.444 60.627s-23.927-22.138-38.425-30.706c-15.513-9.168-34.902-15.069-56.534-12.974-6.676.646-12.529 5.09-17.976 9.986 0 0-10.561.163-15.771-4.501-4.754-4.255-4.605-6.631-8.128-10.033-4.794-4.631-10.968-7.076-10.968-7.076s16.491 3.674 24.789 3.016C45.646 7.53 59.484.681 71.928.466c16.481-.285 31.288 4.271 44.225 12.47 24.823 15.733 42.291 47.691 42.291 47.691z"/></g></svg>