<?xml version="1.0" encoding="UTF-8"?>
<svg width="67px" height="72px" viewBox="0 0 67 72" version="1.1" xmlns="http://www.w3.org/2000/svg" xmlns:xlink="http://www.w3.org/1999/xlink">
    <title>motif_flower6</title>
    <g id="Page-1" stroke="none" stroke-width="1" fill="none" fill-rule="evenodd">
        <g id="Artboard-1" transform="translate(-57.000000, -150.000000)">
            <g id="motif_flower6" transform="translate(58.000000, 151.000000)">
                <path d="M29.8617733,41.3311881 C34.1975566,59.7629418 31.0515487,69.3619471 20.4237496,70.1282042 C15.5851272,69.9890511 13.0307212,68.7708294 12.7605316,66.4735391 C12.5710678,64.8626211 12.7753449,62.2653961 14.1144531,57.4678857 C14.3617829,56.581798 15.2122446,53.9533154 18.6488127,49.3651127 C19.881216,47.7197165 22.5217354,44.6797796 26.570371,40.245302 C20.7269171,46.7643275 17.0321059,50.6249554 15.4859372,51.8271856 C11.244524,55.1251153 8.22789447,54.9798066 6.80670791,55.1464812 C4.6084004,55.4042952 2.5286484,54.2978634 0.567451934,51.8271856 C-0.189150645,48.8929671 -0.189150645,46.6569741 0.567451934,45.1192066 C1.32405451,43.5814391 3.40380651,41.5904111 6.80670791,39.1461226 C9.77312755,37.4816393 12.2090426,36.5521209 14.1144531,36.3575676 C16.0198636,36.1630143 20.1718362,36.6531721 26.570371,37.8280413 C20.0213298,36.5830892 15.8693572,35.6191298 14.1144531,34.9361631 C10.7393504,33.6226539 7.95932178,31.5257861 6.80670791,30.7289844 C4.7551317,29.3107303 2.67537971,26.7037238 0.567451934,22.9079651 C0.27205239,20.311189 0.27205239,18.3149858 0.567451934,16.9193556 C0.862851478,15.5237254 1.73985456,14.5246292 3.19846118,13.9220669 C6.10752647,13.2142543 8.30578617,13.2142543 9.79324026,13.9220669 C11.2806943,14.6298795 12.7210986,15.6289757 14.1144531,16.9193556 C16.683037,18.6800582 18.7861358,20.6762614 20.4237496,22.9079651 C22.0613633,25.1396689 24.4624697,29.6228697 27.6270689,36.3575676 C23.3490367,28.3084227 20.9479303,23.0233923 20.4237496,20.5024765 C19.1636128,14.4421646 21.5340447,10.0705674 22.1461771,8.28125724 C23.1402538,5.37549465 25.3090615,2.75432742 28.6526003,0.417755546 C30.1706217,-0.139251849 31.2789417,-0.139251849 31.9775602,0.417755546 C33.9693251,2.0057865 35.6618633,6.14668663 36.2612073,8.28125724 C36.8605765,10.4159173 37.6735873,18.4037708 36.2612073,25.0727598 C35.7658703,27.4116466 33.6327256,31.1732492 29.8617733,36.3575676 C34.3142933,30.1464444 37.35902,26.3848418 38.9959534,25.0727598 C45.235438,20.0715086 49.5034872,19.5829441 51.8374516,19.3209885 C54.2357093,19.0518168 57.6563649,18.5586165 60.6786546,19.8387262 C61.396283,20.1426822 62.1883363,20.7306633 63.0548145,21.6026697 C64.1619733,23.3016129 64.7267238,24.4583096 64.7490659,25.0727598 C64.9160742,29.6657963 62.7617549,33.1966807 60.6786546,34.9361631 C58.9990768,36.338686 52.3753879,40.5466739 45.341662,41.3311881 C43.0480515,41.5870084 38.5933509,40.8586532 31.9775602,39.1461226 C44.6952893,44.9866609 51.7398237,49.2136819 53.1111635,51.8271856 C53.9679265,53.4600073 55.0967621,56.4667341 54.8829766,59.1730604 C54.7973761,60.2566837 53.782201,61.7966889 51.8374516,63.793076 C47.458637,65.7841613 43.954525,65.7841613 41.3251155,63.793076 C38.695706,61.8019908 35.5798542,56.467611 31.9775602,47.7899367 C31.9775602,48.5092492 29.7233741,40.7428425 29.8617733,41.3311881 Z" id="Path" stroke="#8E8E8E" fill="#8E8E8E"></path>
                <ellipse id="Oval" stroke="#FFFFFF" fill="#FFFFFF" cx="30" cy="36.5" rx="2.5" ry="3"></ellipse>
                <line x1="29.5" y1="40.5" x2="23.75" y2="59.75" id="Line" stroke="#FFFFFF" stroke-linecap="square"></line>
                <line x1="31.625" y1="39.375" x2="42.5" y2="57.5" id="Line" stroke="#FFFFFF" stroke-linecap="square"></line>
                <line x1="31.625" y1="39.375" x2="47.5" y2="57.5" id="Line" stroke="#FFFFFF" stroke-linecap="square"></line>
                <line x1="27.5" y1="36.5" x2="15.5" y2="22.5" id="Line" stroke="#FFFFFF" stroke-linecap="square"></line>
                <line x1="29.5" y1="40.5" x2="29.5" y2="50.5" id="Line" stroke="#FFFFFF" stroke-linecap="square"></line>
                <line x1="29.5" y1="40.5" x2="21.5" y2="52.5" id="Line" stroke="#FFFFFF" stroke-linecap="square"></line>
                <path d="M29,17.4091146 C30.6799354,20.9840527 31.5425934,23.6867002 31.5879742,25.5170573 C31.633355,27.3474144 30.9373636,30.5083953 29.5,35" id="Line" stroke="#FFFFFF" stroke-linecap="square" stroke-linejoin="round"></path>
                <path d="M29,35 C29.4542391,31.3343624 29.4542391,28.5362854 29,26.6057692 C28.5457609,24.675253 27.3790942,21.9733299 25.5,18.5" id="Line" stroke="#FFFFFF" stroke-linecap="square" stroke-linejoin="round"></path>
                <line x1="29.5" y1="37.5" x2="10.5" y2="48.5" id="Line" stroke="#FFFFFF" stroke-linecap="square"></line>
                <line x1="27.5" y1="36.5" x2="11" y2="24" id="Line" stroke="#FFFFFF" stroke-linecap="square"></line>
                <line x1="31.5" y1="29.70625" x2="50.9583333" y2="36.171875" id="Line" stroke="#FFFFFF" stroke-linecap="square" transform="translate(41.375000, 33.103125) scale(1, -1) translate(-41.375000, -33.103125) "></line>
                <line x1="31.5" y1="35.8863636" x2="47.0625" y2="35.6931818" id="Line" stroke="#FFFFFF" stroke-linecap="square" transform="translate(39.062500, 36.193182) scale(1, -1) translate(-39.062500, -36.193182) "></line>
                <line x1="31.5" y1="26.5576923" x2="43.3333333" y2="36.4519231" id="Line" stroke="#FFFFFF" stroke-linecap="square" transform="translate(37.500000, 31.528846) scale(1, -1) translate(-37.500000, -31.528846) "></line>
            </g>
        </g>
    </g>
</svg>