<?xml version="1.0" encoding="UTF-8"?>
<svg width="33px" height="35px" viewBox="0 0 33 35" version="1.1" xmlns="http://www.w3.org/2000/svg" xmlns:xlink="http://www.w3.org/1999/xlink">
    <title>motif_flower6s</title>
    <g id="Page-1" stroke="none" stroke-width="1" fill="none" fill-rule="evenodd">
        <g id="Artboard-1" transform="translate(-339.000000, -316.000000)" fill="#8E8E8E" stroke="#8E8E8E">
            <path d="M358.64584,316.907521 C359.412175,319.275059 359.886164,321.174228 360.067807,322.605029 C360.249449,324.035829 360.249449,326.331634 360.067807,329.492443 C362.308518,328.016585 364.061244,327.189572 365.325985,327.011404 C366.590726,326.833236 368.598465,327.19889 371.349202,328.108366 C370.315146,329.398958 369.340543,330.466059 368.42539,331.309669 C367.510238,332.153278 365.767841,333.143261 363.198199,334.279617 C365.47229,336.565197 366.840546,338.343631 367.302966,339.614918 C367.765386,340.886206 367.765386,342.869384 367.302966,345.564455 C364.419301,344.941137 362.421661,344.158562 361.310048,343.216731 C360.198434,342.2749 358.914647,340.716222 357.458687,338.540697 C356.595364,341.635662 355.72692,343.976915 354.853355,345.564455 C353.97979,347.151995 352.464058,348.682532 350.30616,350.156065 C349.021225,348.052304 348.378758,346.184122 348.378758,344.551519 C348.378758,342.918916 349.792232,340.469323 352.61918,337.20274 C349.414265,338.810859 347.074389,339.614918 345.599553,339.614918 C344.124717,339.614918 342.196167,338.810859 339.813904,337.20274 C341.459738,335.686242 342.786907,334.711868 343.795411,334.279617 C344.803916,333.847366 346.331698,333.598091 348.378758,333.531793 C345.991543,331.103103 344.463761,329.295294 343.795411,328.108366 C343.127061,326.921437 342.438687,325.086991 341.730289,322.605029 C345.002349,323.704979 347.218506,324.598098 348.378758,325.284386 C349.53901,325.970673 350.952484,327.373359 352.61918,329.492443 C352.733558,326.428746 353.15659,324.132941 353.888276,322.605029 C354.619962,321.077116 356.205817,319.177947 358.64584,316.907521 Z" id="motif_flower6s"></path>
        </g>
    </g>
</svg>