<?xml version="1.0" encoding="UTF-8"?>
<svg width="58px" height="59px" viewBox="0 0 58 59" version="1.1" xmlns="http://www.w3.org/2000/svg" xmlns:xlink="http://www.w3.org/1999/xlink">
    <title>motif_keong</title>
    <g id="Page-1" stroke="none" stroke-width="1" fill="none" fill-rule="evenodd">
        <g id="Artboard-1" transform="translate(-631.000000, -425.000000)" fill="#D8D8D8" stroke="#8E8E8E">
            <path d="M644.596331,438.898262 C643.121778,437.370748 642.384502,435.963103 642.384502,434.675329 C642.384502,433.387555 644.178203,431.61412 647.765604,429.355024 C652.001236,426.880255 655.540346,425.642871 658.382933,425.642871 C659.849295,425.642871 661.876846,425.80008 664.013142,426.120254 C665.349795,426.320582 667.431701,426.922172 670.258861,427.925023 C673.942141,429.842124 676.659834,431.659153 678.411942,433.376108 C680.16405,435.093063 682.079851,437.605243 684.159344,440.912645 C685.375687,443.387591 686.179874,444.988237 686.571906,445.714584 C687.60849,447.635143 687.478048,449.785056 687.669934,450.672779 C687.957706,452.004108 687.992754,452.742708 687.992754,456.349035 C687.992754,457.397964 687.818194,459.40732 687.469076,462.377102 C686.75378,464.948229 686.111175,466.8116 685.541259,467.967216 C684.206227,470.674254 682.179695,473.158129 681.320057,474.416425 C679.909959,476.480458 677.254807,478.569024 673.354601,480.682123 C672.115352,481.427011 670.724636,481.999945 669.182452,482.400925 C666.869177,483.002396 666.489284,483.002396 661.885123,483.002396 C659.229849,483.002396 655.379661,482.561821 650.334559,481.680673 C646.278455,480.359948 643.359331,479.10875 641.577185,477.927079 C639.795039,476.745408 637.659491,474.64505 635.170541,471.626006 C633.650887,468.439191 632.764432,466.024747 632.511177,464.382672 C632.257922,462.740597 632.393166,460.284288 632.916909,457.013746 C633.811219,453.730976 634.708438,451.267328 635.608566,449.622801 C636.508695,447.978274 638.224247,445.66841 640.755224,442.693208 C643.983339,440.202674 646.689935,438.778232 648.875011,438.419882 C651.060087,438.061532 654.363118,438.47535 658.784103,439.661337 C662.450523,440.914263 665.018916,442.138788 666.489284,443.334913 C667.959651,444.531038 669.442221,446.281332 670.936994,448.585794 C673.173218,452.291288 674.418016,455.100605 674.67139,457.013746 C674.924763,458.926886 674.485834,461.161878 673.354601,463.718721 C672.563223,465.109939 671.940943,466.031669 671.487759,466.483909 C670.33444,467.634825 669.000487,468.074157 668.233311,468.347374 C667.013953,468.781628 665.147723,468.511324 662.63462,467.536462 C660.059641,466.032671 658.499694,464.760091 657.954781,463.718721 C657.409868,462.677351 657.232054,461.301636 657.421341,459.591575 C657.60644,458.819385 657.744661,458.272337 657.836005,457.950433 C658.020501,457.300245 658.202811,456.766446 658.382933,456.349035 C658.599476,455.847223 657.116177,460.836747 658.382933,464.382672 C658.762574,465.445368 660.179803,466.496632 662.63462,467.536462 C662.792396,467.392777 663.531049,467.907936 664.013142,467.967216 C664.745741,468.057299 664.461118,468.430169 665.385582,468.347374 C665.986227,468.29358 667.180637,468.512848 668.233311,468.347374 C669.596974,468.133014 670.936994,467.050966 671.487759,466.483909 C672.038523,465.916851 672.561453,465.00772 673.354601,463.718721 C674.541054,461.790535 675.093391,459.00336 674.67139,457.013746 C674.012865,453.908989 672.83254,451.056264 670.936994,448.585794 C670.003904,447.369695 669.050059,446.081734 668.233311,445.22105 C666.683482,443.58785 665.543328,442.866544 665.385582,442.693208 C663.904492,441.065751 655.891085,438.452393 650.865205,438.419882 C648.679751,438.405745 646.831234,439.354512 645.87145,439.661337 C645.4377,439.799998 645.221218,439.537032 644.596331,438.898262 Z" id="motif_keong"></path>
        </g>
    </g>
</svg>