<?xml version="1.0" encoding="UTF-8"?>
<svg width="114px" height="84px" viewBox="0 0 114 84" version="1.1" xmlns="http://www.w3.org/2000/svg" xmlns:xlink="http://www.w3.org/1999/xlink">
    <title>motif_bridge</title>
    <g id="Page-1" stroke="none" stroke-width="1" fill="none" fill-rule="evenodd">
        <g id="Artboard-1" transform="translate(-164.000000, -429.000000)" stroke-width="0.3">
            <g id="motif_bridge" transform="translate(165.264508, 430.108440)">
                <path d="M19.1570548,53.0486471 L28.6672972,27.8378237 C25.2581346,25.9972305 21.525463,24.4182122 17.4692826,23.100769 C13.4131022,21.7833257 7.59000798,20.0881678 -7.10542736e-15,18.0152952 C10.6703989,14.5253411 18.8852949,11.7154628 24.6446882,9.58566039 C30.4040814,7.45585795 37.9032627,4.26063782 47.1422321,0 C55.7447822,7.1257384 62.6979267,11.8030611 68.0016656,14.0319681 C73.3054045,16.2608751 81.7956316,18.0736605 93.472347,19.4703244 L111.717961,67.5879709 L107.761081,79.8953681 C103.207597,73.4132662 99.5827696,68.7322882 96.8865985,65.8524342 C94.1904274,62.9725801 90.8294894,60.1918711 86.8037843,57.510307 L76.1469377,81 C72.255185,79.5050568 69.5400943,78.2317938 68.0016656,77.1802108 C66.4632368,76.1286279 64.7815506,74.3965028 62.9566069,71.9838354 L72.4661189,47.8581202 C66.8030924,43.0982777 62.4457528,39.8662609 59.3941002,38.1620697 C56.3424476,36.4578786 51.7341209,34.6830316 45.5691203,32.8375288 L35.4308017,59.7634344 C30.9772229,59.1297819 27.6980808,58.3787394 25.5933754,57.510307 C23.48867,56.6418746 21.3432298,55.1546547 19.1570548,53.0486471 Z" id="Path-23" stroke="#8E8E8E" fill="#8E8E8E" stroke-linecap="round" stroke-linejoin="round"></path>
                <path d="M28.735492,27.7517118 C31.7808891,21.2102754 34.3421873,16.3761887 36.4193867,13.2494517 C38.4965861,10.1227148 42.0708679,5.73352223 47.1422321,0.0818740515 C48.1576103,7.65812577 48.574047,13.3491533 48.391542,17.1549568 C48.209037,20.9607602 47.2909614,26.1578957 45.637315,32.7463632 L35.4308017,59.7634344 C30.7436886,59.0334222 27.4645465,58.2823798 25.5933754,57.510307 C23.7222043,56.7382343 21.5767641,55.2510143 19.1570548,53.0486471 L28.735492,27.7517118 Z" id="Path-24" stroke="#FFFFFF"></path>
                <path d="M72.4661189,47.8916197 C76.3106653,39.7268201 79.2715382,34.0810519 81.3487375,30.9543149 C83.4259369,27.827578 87.4671401,24.0203123 93.472347,19.532518 C94.2142503,27.9718784 94.2142503,34.3054671 93.472347,38.5332841 C92.7304437,42.7611012 90.5075895,49.0867755 86.8037843,57.510307 L76.1469377,81 C72.5073822,79.7380379 69.9471885,78.6009503 68.4663566,77.5887373 C66.9855247,76.5765243 65.1489414,74.7082237 62.9566069,71.9838354 L72.4661189,47.8916197 Z" id="Path-24" stroke="#FFFFFF"></path>
                <path d="M13.5827824,13.5064494 C17.3743557,13.6106258 20.6760833,13.8413087 23.4879652,14.1984982 C26.299847,14.5556876 29.9069787,15.3868032 34.30936,16.6918449" id="Path-25" stroke="#FFFFFF"></path>
                <path d="M48.136522,20.6376634 C55.3913669,23.3389129 60.6975282,25.5463855 64.055006,27.2600812 C67.4124838,28.9737769 72.1386741,31.8869334 78.2335771,35.9995506" id="Path-26" stroke="#FFFFFF"></path>
                <path d="M91.8859993,44.6790468 C96.6974379,48.8944768 100.202252,52.2920316 102.400443,54.8717113 C104.598633,57.4513909 107.704472,61.6901441 111.717961,67.5879709" id="Path-27" stroke="#FFFFFF"></path>
            </g>
        </g>
    </g>
</svg>