<?xml version="1.0" encoding="UTF-8"?>
<svg width="78px" height="92px" viewBox="0 0 78 92" version="1.1" xmlns="http://www.w3.org/2000/svg" xmlns:xlink="http://www.w3.org/1999/xlink">
    <title>motif_flower8</title>
    <g id="Page-1" stroke="none" stroke-width="1" fill="none" fill-rule="evenodd">
        <g id="Artboard-1" transform="translate(-322.000000, -408.000000)" stroke="#8E8E8E">
            <g id="motif_flower8" transform="translate(323.316287, 409.963755)">
                <path d="M44.1516719,89.0018405 C39.1840969,83.6996562 35.9236297,79.3789471 34.3702703,76.0397135 C32.8169109,72.7004798 32.0500725,68.3637496 32.0697551,63.029523 L35.3570838,49.3027964 C32.9252029,57.5652406 31.1003985,62.6657935 29.8826707,64.6044551 C28.664943,66.5431166 26.6318942,68.3744371 23.7835243,70.0984166 C22.1418393,71.0657996 20.726892,71.8267446 19.5386826,72.3812514 C18.3504731,72.9357582 16.297891,73.4224199 13.3809362,73.8412364 C13.774173,70.6869948 14.071985,68.8461703 14.2743721,68.3187629 C14.4767593,67.7913554 14.9844479,66.5532528 15.7974379,64.6044551 C18.5690751,59.2805036 20.8255579,55.9569257 22.5668862,54.6337212 C24.3082146,53.3105167 28.5716138,51.5335418 35.3570838,49.3027964 C28.8144873,51.7129852 24.3370397,53.0653917 21.9247408,53.3600159 C16.1227019,54.0686433 12.4479984,52.5756082 10.8024407,52.0529425 C8.13676446,51.2062646 4.53595089,49.6509896 -2.84217094e-14,47.3871175 C3.46723436,43.1552636 6.74335833,40.4058322 9.82837194,39.1388235 C11.6342248,38.3971635 15.0106925,37.4698006 19.5386826,37.4453181 C21.6769252,37.4337568 25.8539494,38.1888319 32.0697551,39.7105436 C28.0872429,38.2332498 25.325166,37.0255662 23.7835243,36.0874925 C17.1209643,32.0333908 13.4196523,27.9987839 11.8069047,25.8794627 C9.63439957,23.0245608 8.22687676,19.0454964 7.58433629,13.9422693 C12.0036986,14.1731349 15.4794112,14.9188896 18.0114741,16.1795332 C20.2795415,17.3087409 24.2883479,19.0152661 30.3929882,29.2852674 C30.8666947,30.0821966 31.8635248,33.3667153 33.3834788,39.1388235 C31.2636115,32.1679807 30.0966755,27.2839496 29.8826707,24.4867303 C29.2673724,16.4442696 31.315489,11.0257759 32.0697551,9.08130917 C33.217529,6.12239545 35.2354081,3.09529239 38.1233925,5.68434189e-14 C41.2191176,4.18240879 43.2285441,8.09354521 44.1516719,11.7334093 C44.7738275,14.1865491 45.9822177,19.5517874 45.2789311,26.6776693 C45.0521178,28.9758007 43.9157873,33.2216574 41.8699397,39.4152395 C44.5231426,32.8412725 46.4667329,28.5954158 47.7007107,26.6776693 C50.7090659,22.0023319 54.2135514,19.8525693 55.7494794,18.8725391 C58.2304261,17.2895204 62.2823222,16.3918518 67.9051677,16.1795332 C67.9257276,20.1345341 67.2329304,23.367844 65.826776,25.8794627 C64.8739195,27.5814183 61.241319,31.5503108 54.9445617,34.9111879 C52.947544,35.9770907 48.5893366,37.5768759 41.8699397,39.7105436 C48.1643414,37.5195257 52.3618335,36.3118421 54.4624159,36.0874925 C60.6149505,35.4303804 65.3992346,36.6250068 66.7658952,37.0502896 C68.8324585,37.6933708 71.6373594,38.9562742 75.1805979,40.8389998 C72.6105286,43.5590616 70.1853852,45.4565745 67.9051677,46.5315383 C66.6110897,47.141606 63.6263236,48.2861666 58.9427287,48.5614788 C56.5633371,48.7013448 51.2711258,48.4855798 43.066095,47.9141838 C50.6920019,48.2026828 55.564689,48.815188 57.6841564,49.7516994 C61.2991827,51.349041 63.984772,55.8277135 64.6637042,57.0897915 C65.9397168,59.4617922 67.0202047,63.4826345 67.9051677,69.1523185 C62.1981254,67.6178897 58.1462293,66.1019352 55.7494794,64.6044551 C54.2333567,63.6571874 51.3411236,61.2757628 48.3596139,57.4449528 C47.2050908,55.961557 45.3035399,53.000399 42.6549613,48.5614788 C45.2451304,53.0751983 46.7873419,56.3034191 47.2815959,58.2461415 C49.2833916,66.1144302 48.6263179,72.2540073 48.3596139,74.9307778 C47.994134,78.5989115 46.5914867,83.2892658 44.1516719,89.0018405 Z" id="Path-2" fill="#8E8E8E"></path>
                <circle id="Oval" fill="#D8D8D8" cx="37.6837126" cy="44.0362452" r="6.5"></circle>
            </g>
        </g>
    </g>
</svg>