<svg xmlns="http://www.w3.org/2000/svg" fill-rule="evenodd" stroke-linecap="round" stroke-linejoin="round" stroke-miterlimit="1.5" clip-rule="evenodd" viewBox="0 0 113 213" width="113" height="213"><path fill="#8e8e8e" stroke="#fff" stroke-width=".9" d="M35.373 166.312s5.28 1.332 9.74 1.15c6.98-.285 10.13-6.089 15.74-5.971 5.88.125 14.77 5.583 19.58 6.717 3.02.71 6.19.877 8.58-.124 2.38-1.002 4.39-3.703 5.9-5.859 2.36-3.367 7.13-10.394 9.78-15.325 2.73-5.089 5.21-7.463 6.55-17.329 1.54-11.342 1.32-17.051 1.07-22.116-.38-7.506-.63-10.112-1.84-16.906-.67-3.81-3.56-9.842-5.62-13.119-3.17-5.043-10.47-14.514-14.98-21.052-4.41-6.377-9.63-13.739-12.07-19.88-2.11-5.316-2.05-8.285-2.58-16.966-.22-3.452-.97-11.141-3.36-15.264-1.97-3.386-5-3.696-6.55-3.791-1.73-.106-4.1-.003-7.8 2.446-3.26 2.155-4.85 4.889-6.62 9.836-1.89 5.303-3.24 17.485-6.65 24.039-3.06 5.887-9.23 9.535-14 14.148-5.49 5.313-14.089 10.666-18.943 17.725-4.853 7.058-9.382 15.78-10.173 24.627-1.055 11.794-1.368 19.366 2.805 36.418 2.092 8.549 7.468 16.168 12.31 22.525 7.061 9.265 19.131 14.071 19.131 14.071z"/><path fill="none" stroke="#fff" stroke-width=".9" d="M58.223 2.923s.9 26.856-4.09 37.623c-5.37 11.578-19.71 18.52-28.07 33.089-10.226 17.84-9.2 27.731-9.497 36.183-.289 8.161 1.117 24.52 4.217 33.576 3 8.76 14.59 22.918 14.59 22.918"/><path fill="#8e8e8e" stroke="#fff" stroke-width=".9" d="M91.653 166.326s-6.163 9.601-9.092 10.992c-2.51 1.192-6.958.323-8.959-.185-1.598-.406-4.624-2.812-6.224-3.212-2.213-.553-6.282-.751-9.089-.127-2.652.588-5.046 3.266-7.476 3.763-2.407.493-6.572.707-8.56-.738-2.575-1.872-6.883-10.508-6.883-10.508s5.281 1.333 9.741 1.151c6.985-.286 10.129-6.089 15.739-5.971 5.887.124 14.769 5.583 19.584 6.716 3.019.711 6.188.878 8.575-.124.914-.383 1.773-1.016 2.569-1.772"/><path fill="#8e8e8e" stroke="#fff" stroke-width=".9" d="M41.98 176.696s4.188 13.374 9.22 12.882c12.879-1.259-.985.09 13.791-1.163 4.222-.358 13.737-.485 15.629-2.429 2.375-2.441 7.624-14.659 7.624-14.659h-.058c-1.903 2.566-4.166 5.298-5.625 5.991-2.51 1.192-6.958.323-8.959-.185-1.598-.406-4.624-2.812-6.224-3.212-2.213-.553-6.282-.751-9.089-.127-2.652.588-5.046 3.266-7.476 3.763-2.407.493-6.572.707-8.56-.738a4.409 4.409 0 0 1-.273-.218"/><path fill="#8e8e8e" stroke="#fff" stroke-width=".9" d="M73.602 177.133c-1.598-.406-4.624-2.812-6.224-3.212-2.213-.553-6.282-.751-9.089-.127-2.652.588-5.046 3.266-7.476 3.763 0 0 6.403-.824 12.933-.719 6.14.1 9.856.295 9.856.295m7.387 8.427a5.763 5.763 0 0 1-.369.426c-1.892 1.944-11.407 2.071-15.629 2.429-14.776 1.253-.912-.096-13.791 1.163-.28.027-.558.012-.832-.042v.055s4.22 7.099 7.116 8.722c2.75 1.542 7.222 1.342 10.282.584 7.189-1.782 9.865-5.298 10.687-6.55 1.511-2.304 2.536-6.659 2.536-6.659"/><path fill="#8e8e8e" stroke="#fff" stroke-width=".9" d="M75.887 195.48s1.058 5.559 0 8.437c-1.11 3.017-3.224 7.64-5.512 8.39-1.903.625-3.413-3.038-5.859-5.431-1.604-1.569-4.892-2.458-5.834-3.791-1.387-1.962-.201-4.204-.201-4.204l.032-.097c2.747 1.017 6.55.783 9.253.113 3.834-.95 6.384-2.393 8.054-3.724"/></svg>