<svg xmlns="http://www.w3.org/2000/svg" fill-rule="evenodd" stroke-linecap="round" stroke-linejoin="round" stroke-miterlimit="1.5" clip-rule="evenodd" viewBox="0 0 174 174" width="174" height="174"><path fill="#8e8e8e" stroke="#fff" stroke-width=".91" d="M86.884 75.962a10.92 10.92 0 0 1 9.01 4.744 10.872 10.872 0 0 1 1.911 6.176c0 2.513-.848 4.83-2.285 6.674a10.904 10.904 0 0 1-8.636 4.245c-6.02 0-10.92-4.893-10.92-10.92 0-6.026 4.9-10.919 10.92-10.919z"/><path fill="#b0b0b0" stroke="#fff" stroke-width=".91" d="M95.52 93.556s29.012 15.802 33.912 11.21c2.932-2.743-2.658-10.519-2.658-10.519.761-.107 15.145 2.02 15.174-6.094.014-5.507-16.841-5.207-16.841-5.207s7.659-10.77 1.624-13.717c-10.562-5.173-30.837 11.477-30.837 11.477a10.872 10.872 0 0 1 1.911 6.176c0 2.513-.848 4.83-2.285 6.674z"/><path fill="#adadad" stroke="#fff" stroke-width=".9" d="M95.512 93.552s29.01 15.802 33.92 11.21c2.93-2.743-2.67-10.519-2.67-10.519.76-.108 15.15 2.02 15.18-6.095.01-5.507-16.85-5.207-16.85-5.207s7.66-10.77 1.64-13.717c-10.57-5.172-30.85 11.478-30.85 11.478s24.06-24.135 33.77-28.662c7.21-3.367 18.44-3.742 22.3 1.101 4.4 5.519-1.7 16.146-1.7 16.146s22.71 4.074 23.05 17.492c.23 8.728-20.85 13.278-20.85 13.278s11.02 25.123-13.24 19.745c-15.46-3.427-31.98-16.181-43.7-26.25z"/><path fill="#b0b0b0" stroke="#fff" stroke-width=".91" d="M78.23 93.556s-29.012 15.802-33.912 11.21c-2.932-2.743 2.658-10.519 2.658-10.519-.761-.107-15.145 2.02-15.174-6.094-.014-5.507 16.841-5.207 16.841-5.207s-7.659-10.77-1.624-13.717c10.562-5.173 30.837 11.477 30.837 11.477a10.872 10.872 0 0 0-1.911 6.176c0 2.513.848 4.83 2.285 6.674z"/><path fill="#adadad" stroke="#fff" stroke-width=".9" d="M78.24 93.552s-29.01 15.802-33.92 11.21c-2.93-2.743 2.67-10.519 2.67-10.519-.76-.108-15.15 2.02-15.18-6.095-.01-5.507 16.85-5.207 16.85-5.207S41 72.171 47.02 69.224c10.57-5.172 30.85 11.478 30.85 11.478S53.81 56.567 44.1 52.04c-7.21-3.367-18.44-3.742-22.3 1.101-4.4 5.519 1.7 16.146 1.7 16.146S.79 73.361.45 86.779c-.23 8.728 20.85 13.278 20.85 13.278s-11.02 25.123 13.24 19.745c15.46-3.427 31.98-16.181 43.7-26.25z"/><path fill="#b0b0b0" stroke="#fff" stroke-width=".91" d="M80.195 78.23s-15.802-29.012-11.21-33.912c2.743-2.932 10.519 2.658 10.519 2.658.107-.761-2.02-15.145 6.094-15.174 5.507-.014 5.207 16.841 5.207 16.841s10.77-7.659 13.717-1.624c5.173 10.562-11.477 30.837-11.477 30.837a10.872 10.872 0 0 0-6.176-1.911c-2.513 0-4.83.848-6.674 2.285z"/><path fill="#adadad" stroke="#fff" stroke-width=".9" d="M80.198 78.24s-15.802-29.01-11.21-33.92c2.743-2.93 10.519 2.67 10.519 2.67.108-.76-2.02-15.15 6.095-15.18 5.507-.01 5.207 16.85 5.207 16.85s10.77-7.66 13.717-1.64c5.172 10.57-11.478 30.85-11.478 30.85s24.135-24.06 28.662-33.77c3.367-7.21 3.742-18.44-1.101-22.3-5.519-4.4-16.146 1.7-16.146 1.7S100.389.79 86.971.45C78.243.22 73.693 21.3 73.693 21.3S48.57 10.28 53.948 34.54c3.427 15.46 16.181 31.98 26.25 43.7z"/><path fill="#b0b0b0" stroke="#fff" stroke-width=".91" d="M80.195 95.52s-15.802 29.012-11.21 33.912c2.743 2.932 10.519-2.658 10.519-2.658.107.761-2.02 15.145 6.094 15.174 5.507.014 5.207-16.841 5.207-16.841s10.77 7.659 13.717 1.624c5.173-10.562-11.477-30.837-11.477-30.837a10.872 10.872 0 0 1-6.176 1.911 10.82 10.82 0 0 1-6.674-2.285z"/><path fill="#adadad" stroke="#fff" stroke-width=".9" d="M80.198 95.51s-15.802 29.01-11.21 33.92c2.743 2.93 10.519-2.67 10.519-2.67.108.76-2.02 15.15 6.095 15.18 5.507.01 5.207-16.85 5.207-16.85s10.77 7.66 13.717 1.64c5.172-10.57-11.478-30.85-11.478-30.85s24.135 24.06 28.662 33.77c3.367 7.21 3.742 18.44-1.101 22.3-5.519 4.4-16.146-1.7-16.146-1.7s-4.074 22.71-17.492 23.05c-8.728.23-13.278-20.85-13.278-20.85s-25.123 11.02-19.745-13.24c3.427-15.46 16.181-31.98 26.25-43.7z"/></svg>