<svg xmlns="http://www.w3.org/2000/svg" fill-rule="evenodd" stroke-linecap="round" stroke-linejoin="round" stroke-miterlimit="1.5" clip-rule="evenodd" viewBox="0 0 250 197" width="250" height="197"><path fill="#a2a2a2" stroke="#fff" stroke-width=".9" d="M103.32 47.113c16.402 3.269 32.489 2.617 48.239-2.22 0 0-4.971-11.76-9.978-10.787-6.768 1.316-5.794 13.214-5.794 13.214s-5.532-12.592-11.536-11.913c-5.544.628-4.962 12.667-4.962 12.667s-2.85-9.203-8.059-9.518c-5.852-.355-7.91 8.557-7.91 8.557zm78.795 48.629s8.177-5.955 6.93-12.654c-1.082-5.809-9.979-7.133-9.979-7.133 3.681-7.471 3.134-12.945-7.517-13.645 0 0 1.772-4.483.353-9.612-1.274-4.603-10.199-7.92-10.199-7.92 2.839 17.114 9.942 34.092 20.412 50.964zm-27.677 8.34s14.368 3.947 17.742 3.384c2.371-.395 2.504-6.761 2.504-6.761s12.036 4.132 13.782 2.575c1.117-.994-6.351-7.538-6.351-7.538-9.268 3.575-18.513 6.345-27.677 8.34zm-9.219 1.752c-1.476 4.638-2.889 10.648-.264 15.053 9.169 6.137 13.157 10.875 14.027 15.905 1.319-2.485 2.666-4.806 2.085-10.716-2.074-4.06-4.896-6.746-8.031-6.796-2.317-5.078-.064-11.518 1.402-15.198a175.775 175.775 0 0 1-9.219 1.752zm-32.664 2.063c4.003 7.112 8.86 14.807 13.731 18.683 4.981-4.663 8.347-13.249 10.276-19.566a163.006 163.006 0 0 1-24.007.883zm-9.614-.658c2.292 5.802 2.432 10.658 1.159 14.699-6.977 4.441-9.528 11.44-7.218 21.247 2.566-10.455 8.045-16.541 15.114-19.277.96-7.037-1.4-13.54-3.204-16.198a156.72 156.72 0 0 1-5.851-.471zm0 0c-13.503-1.344-26.54-4.427-38.894-9.129 0 0 2.472 12.096 6.71 12.832 3.037.527 10.316-5.407 10.316-5.407s4.146 7.34 7.761 7.622c3.645.284 14.107-5.918 14.107-5.918zM64.047 98.11c14.27-15.335 24.781-30.594 27.484-47.351 0 0-8.649-1.654-11.622 3.229-1.996 3.278 1.057 8.229 1.057 8.229s-8.519-.379-11.62 5.123c-2.851 5.058.958 12.453.958 12.453s-6.509 1.224-8.651 5.255c-2.631 4.95 2.394 13.062 2.394 13.062z"/><path fill="#8e8e8e" stroke="#fff" stroke-width=".9" d="M92.174 44.306c23.665 7.186 46.694 6.473 69.023-2.916 2.422 18.261 9.758 36.367 20.918 54.352-41.549 16.028-82.623 15.857-118.068 2.368 16.08-17.28 27.387-34.463 28.127-53.804z"/><path fill="#adadad" stroke="#fff" stroke-width=".9" d="M189.392 83.191c1.146-7.768 7.445-14.869 17.411-19.745 6.586-3.222 12.459-2.353 18.209-.821-1.859 5.464-6.131 10.323-11.053 13.311-5.582 3.389-17.958 7.201-24.567 7.255z"/><path fill="#bebebe" d="M225.012 62.625s9.363 4.014 12.334 13.732c3.706 12.124 1.424 19.965 1.424 19.965s-9.303-3.249-13.037-11.95c-4.475-10.426-.721-21.747-.721-21.747z"/><ellipse cx="722.71" cy="736.89" fill="#8e8e8e" stroke="#fff" stroke-width=".37" rx="4.2" ry="4.13" transform="matrix(2.70657 -.23877 .1799 2.03934 -2004.15 -1208.274)"/><ellipse cx="812.43" cy="728.04" fill="#8e8e8e" stroke="#fff" stroke-width=".75" rx="8.36" ry="6.48" transform="matrix(1.26556 .22762 -.19656 1.09285 -710.543 -864.973)"/><path fill="#adadad" stroke="#fff" stroke-width=".9" d="M178.17 63.259c-1.131-4.723 10.211-13.831 15.932-16.959 5.256-2.873 15.567-4.63 18.734-2.488.028 3.682-5.992 9.676-13.266 14.623-5.878 3.997-16.699 7.626-21.4 4.824z"/><path fill="#bebebe" d="M213.08 43.903s7.662-1.688 12.605 1.416c6.129 3.849 6.951 10.568 6.951 10.568s-5.689 1.048-10.276-1.685c-5.654-3.369-9.28-10.299-9.28-10.299z"/><path fill="#adadad" stroke="#fff" stroke-width=".9" d="M170.679 49.561c-2.866-.133 5.626-13.53 17.803-19.747 7.517-3.839 15.331-1.813 15.331-1.813s-2.919 9.223-11.855 14.317c-6.612 3.769-17.059 7.438-21.279 7.243z"/><path fill="#bebebe" d="M204.066 28.042s8.109-1.385 13.767.843c5.45 2.145 9.665 8.355 9.665 8.355s-8.453 2.247-15.246-.546c-6.233-2.563-8.186-8.652-8.186-8.652z"/><path fill="#adadad" stroke="#fff" stroke-width=".9" d="M81.397 51.242s-2.356-6.507-11.246-10.797c-9.571-4.62-17.281-4.651-17.281-4.651s1.087 10.069 10.021 14.408c12.452 6.048 18.506 1.04 18.506 1.04z"/><path fill="#bebebe" d="M52.41 35.687s-3.482-1.225-9.937-1.324c-11.769-.18-13.864 4.098-13.864 4.098s.511 4.576 9.016 4.262c14.539-.538 14.785-7.036 14.785-7.036z"/><path fill="#adadad" stroke="#fff" stroke-width=".9" d="M68.934 67.149s-3.591-7.033-11.456-11.444c-7.001-3.926-14.54-4.499-14.54-4.499s-2.238 9.258 5.699 14.626c14.484 9.796 20.297 1.317 20.297 1.317z"/><path fill="#bebebe" d="M42.645 51.129s-8.47-3.408-18.921-1.172c-7.385 1.58-9.038 8.425-9.038 8.425s3.957 4.212 16.573 2.173c8.195-1.325 11.386-9.426 11.386-9.426z"/><path fill="#adadad" stroke="#fff" stroke-width=".9" d="M60.253 88.317s-4.385-8.407-13.716-12.408c-11.733-5.031-20.222.459-20.222.459s1.843 6.348 12.715 10.86c12.689 5.267 21.223 1.089 21.223 1.089z"/><path fill="#bebebe" d="M25.829 76.489s-9.679-2.13-18.248 5.315C-2.545 90.602.398 102.853.398 102.853s6.945-2.689 14.933-10.972c6.891-7.146 10.498-15.392 10.498-15.392zm69.456-44.893c-2.654-1.24-5.095-1.357-5.095-1.357s-1.478 1.195-2.332 3.167c-9.417-6.238-16.346-15.283-15.999-25.641.198-5.926 7.353-7.626 14.768-7.76 7.44-.135 16.094 1.232 18.308 8.336 2.278 7.315-4.326 17.746-9.65 23.255z"/><path fill="#adadad" stroke="#fff" stroke-width=".9" d="M102.661 46.269s.841-5.288-2.566-10.592c-3.289-5.121-9.905-5.438-9.905-5.438s-4.716 3.814-2.169 9.057c2.263 4.658 14.64 6.973 14.64 6.973z"/><path fill="#bebebe" d="M155.357 30.239c3.025-2.409 7.219-2.671 7.219-2.671s.899.879 1.666 2.244c9.149-6.345 15.102-21.639 7.156-25.469-5.547-2.674-14.161-1.801-20.717 4.856-4.366 4.433.684 15.79 4.676 21.04z"/><path fill="#adadad" stroke="#fff" stroke-width=".9" d="M151.757 44.192s-.07-8.458 1.456-11.391c2.5-4.805 9.363-5.233 9.363-5.233s4.137 4.042 2.233 8.262c-1.944 4.307-13.052 8.362-13.052 8.362z"/><path fill="#8e8e8e" d="M26.106 149.397c2.474-.811 4.784-1.945 6.834-3.43 4.757-3.447 5.727-6.915 4.689-15.744 2.827 8.526 16.889 11.731 18.469 10.344 0 0-6.355-9.605-3.772-14.783 3.109-6.232 7.097-4.938 9.981-11.638 1.825-4.241 1.594-15.792 1.594-15.792-12.866 4.793-42.817 33.747-55.808 51.968 6.11 1.093 12.473.892 18.013-.925"/><path fill="#adadad" stroke="#fff" stroke-width=".9" d="M26.106 149.397c5.379 1.841 10.847 7.673 13.134 14.36 0 0-4.533.167-5.671 4.353-1.11 4.086 2.722 10.228 2.722 10.228-11.148-6.291-21.326-16.227-28.198-28.016 6.11 1.093 12.473.892 18.013-.925z"/><path fill="#8e8e8e" d="M231.641 146.254a68.721 68.721 0 0 1-3.882-2.581c-11.384-8.063-4.994-15.641-11.227-25.654-3.384 4.413-7.273 8.452-11.989 9.308 0 0 1.451-6.557-2.261-11.763-9.185-12.88-19.689-19.679-19.689-19.679 32.974 1.603 65.418 39.894 66.335 53.102"/><path fill="#adadad" stroke="#fff" stroke-width=".9" d="M248.928 148.987c-6.953 1.621-11.147 1.015-17.287-2.733-4.549 1.888-6.572 4.978-8.704 8.93 0 0 7.294.183 7.403 2.821.171 4.161-5.406 10.149-10.893 16.338 10.901-4.961 21.706-16.124 29.481-25.356"/><path fill="#bebebe" stroke="#fff" stroke-width=".9" d="M39.24 163.757s8.757-3.28 19.081-1.845c8.746 1.215 5.725 15.31 5.725 15.31s6.235-4.787 11.538-2.295c5.839 2.745 8.492 10.648 8.957 14.351.397 3.159-1.505 7.221-9.039 6.625-13.369-1.059-39.211-17.565-39.211-17.565s-3.832-6.142-2.722-10.228c1.138-4.186 5.671-4.353 5.671-4.353z"/><path fill="#adadad" stroke="#fff" stroke-width=".9" d="M83.267 184.407c.704 1.864 1.116 3.611 1.274 4.871.276 2.19-.554 4.814-3.6 6.019 7.284-.12 19.237-1.673 27.814-8.853 12.103-10.129 11.962-19.072 9.088-27.786-10.054 9.777-21.814 18.995-34.576 25.749z"/><path fill="#bebebe" stroke="#fff" stroke-width=".9" d="M83.465 183.331a306.485 306.485 0 0 1 26.128-30.668c-3.292-1.607-11.665-.75-16.239 3.6-7.639 7.264-11.449 18.053-9.889 27.068zm139.472-28.147s7.294.183 7.403 2.821c.171 4.161-5.406 10.149-10.893 16.338-11.911 7.893-33.497 16.333-40.523 14.942-3.797-.752-2.798-19.349 3.793-22.977 7.943-4.373 21.201 1.743 21.201 1.743s-3.686-11.424 1.112-14.853c6.313-4.511 17.907 1.986 17.907 1.986"/><path fill="#adadad" stroke="#fff" stroke-width=".9" d="M177.428 175.808c-1.33 6.196-.775 13.027 1.496 13.477 0 0-8.49 2.282-24.896-12.062-13.025-11.387-8.137-21.519-8.137-21.519 9.74 7.414 20.601 14.231 31.537 20.104"/><path fill="#bebebe" stroke="#fff" stroke-width=".9" d="M177.127 174.823s3.36-11.486-4.22-18.694c-11.487-10.924-18.825-5.174-18.825-5.174 8.509 7.666 16.117 15.648 23.045 23.868z"/></svg>