<svg xmlns="http://www.w3.org/2000/svg" fill-rule="evenodd" stroke-linecap="round" stroke-linejoin="round" stroke-miterlimit="1.5" clip-rule="evenodd" viewBox="0 0 136 221" width="136" height="221"><g stroke="#fff" stroke-width=".9"><path fill="#8e8e8e" d="M127.367.448s-45.17 49.413-44.76 87.427c.51 46.708 29.78 59.665 39.95 89.145 5.05 14.63.13 30.19.13 30.19s7.12-3.28 8.25-13.09c1.74-15.03-11.55-38.92-19.98-50.33-26.81-36.272-20.44-81.093 4.04-113.817 12.83-17.153 20.05-21.644 20.05-21.644l-7.68-7.881z"/><path fill="#adadad" d="M120.047 158.15c-3.09-5.62-6.35-10.65-9.09-14.36-26.81-36.272-20.44-81.093 4.04-113.817 3.82-5.113 7.15-9.101 9.93-12.18 0 0-11.25 19.02-9.5 31.972 3.17 23.314 15.22 30.979 15.22 30.979s-2.04 8.824-8.06 14.205c-5.05 4.511-15.43 2.842-15.43 2.842s19.91 13.561 15.13 31.048c-5.25 19.221-2.24 29.311-2.24 29.311z"/><path fill="#a2a2a2" d="M83.037 80.721a52.733 52.733 0 0 0-.43 7.154c.51 46.708 29.78 59.665 39.95 89.145 5.05 14.63.13 30.19.13 30.19s-6.75 10.02-24.17 12.04c-16.41 1.91-28.07-4.41-35.5-15.14-13.44-19.41-7.31-48.84-15.45-72.496-3.57-10.4-15.3-27.823-15.3-27.823s11.73 5.416 20.27 5.297c7.97-.111 15.53-1.656 22.42-11.591 5.05-7.275 8.08-16.776 8.08-16.776z"/><path fill="#b6b4b4" d="M32.337 103.772s19 3.403 30.46-3.888c10.12-6.44 13.28-14.967 12.25-22.011-.85-5.778-6.28-9.829-12.12-9.766-6.45.07-12.35 5.22-12.35 11.849 0 4.419 4.47 7.371 4.47 7.371s-4.55-.354-9.52-3.003c-5.29-2.816-6.3-9.654-6.3-9.654s.57 17.203-12.4 21.632C9.415 102.249.45 94.716.45 94.716s14.45 1.078 23.891-18.242c4.196-8.59 10.096-17.16 20.646-21.024 8.3-3.041 18.55-.28 26.92 5.25 7 4.625 12.66 11.867 12.66 11.867a68.7 68.7 0 0 0-1.53 8.154s-3.03 9.501-8.08 16.776c-6.89 9.935-14.45 11.48-22.42 11.591-8.54.119-20.27-5.297-20.27-5.297"/><path fill="none" d="M35.707 60.993s-1.04 9.81-3.88 16.086c-2.85 6.271-6.877 10.656-6.877 10.656"/></g></svg>