<?xml version="1.0" encoding="UTF-8"?>
<svg width="78px" height="71px" viewBox="0 0 78 71" version="1.1" xmlns="http://www.w3.org/2000/svg" xmlns:xlink="http://www.w3.org/1999/xlink">
    <title>motif_flower5</title>
    <g id="Page-1" stroke="none" stroke-width="1" fill="none" fill-rule="evenodd">
        <g id="Artboard-1" transform="translate(-328.000000, -208.000000)">
            <g id="motif_flower5" transform="translate(330.000000, 210.000000)">
                <path d="M48.7370564,66.8612313 C50.813329,64.0528521 51.9516788,61.9948216 52.1521058,60.6871398 C52.7846511,56.5601099 50.989491,53.0436535 52.1521058,50.9088223 C53.8672959,47.759334 56.6102259,45.9498708 60.3808957,45.4804328 C56.460595,45.5095039 52.84962,44.461512 49.5479704,42.3364571 C47.7217505,41.1610393 46.9469844,37.8490151 44.581684,35.5457583 C43.3077102,34.3052018 40.7804822,32.6005111 37,30.4316862 C40.852154,30.3286834 43.379382,29.9822928 44.581684,29.3925144 C48.2299882,27.602872 48.7370564,25.4775792 52.1521058,23.8526706 C55.9162177,22.0616751 59.1482369,22.6033113 61.8481632,25.4775792 C59.223021,19.1171959 59.4967022,14.2792206 62.6692068,10.9636533 C63.8535673,9.72588457 66.606488,8.96922531 68.8345974,6.52632574 C69.7053171,5.5716685 71.427118,3.39622659 74,1.42108547e-14 L74,50.9088223 C71.8522119,55.3224404 69.1113261,58.5818796 65.7773425,60.6871398 C63.6636363,62.0218499 60.8372496,61.9746951 56.8375462,63.2714381 C55.2981498,63.7705255 52.5979866,64.9671232 48.7370564,66.8612313 Z" id="Path-6" stroke="#8E8E8E" fill="#8E8E8E" transform="translate(55.500000, 33.430616) scale(-1, 1) translate(-55.500000, -33.430616) "></path>
                <path d="M12.0542742,66.8612313 C14.1866622,64.0528521 15.3557782,61.9948216 15.5616221,60.6871398 C16.2112633,56.5601099 14.3675854,53.0436535 15.5616221,50.9088223 C17.3231688,47.759334 20.140232,45.9498708 24.0128117,45.4804328 C19.9865571,45.5095039 16.2779881,44.461512 12.8871047,42.3364571 C11.0115276,41.1610393 10.2158218,37.8490151 7.78659438,35.5457583 C6.47818884,34.3052018 3.88265738,32.6005111 0,30.4316862 C3.95626623,30.3286834 6.55179769,29.9822928 7.78659438,29.3925144 C11.5335014,27.602872 12.0542742,25.4775792 15.5616221,23.8526706 C19.4274668,22.0616751 22.7468379,22.6033113 25.5197352,25.4775792 C22.8236432,19.1171959 23.1047212,14.2792206 26.3629692,10.9636533 C27.5793394,9.72588457 30.4066633,8.96922531 32.6949919,6.52632574 C33.5892446,5.5716685 34.7202219,3.60863437 36.0879239,0.637223335 L38,50.9088223 C35.7941636,55.3224404 32.9791997,58.5818796 29.5551085,60.6871398 C27.3842751,62.0218499 24.4814995,61.9746951 20.3736961,63.2714381 C18.7926944,63.7705255 16.0195538,64.9671232 12.0542742,66.8612313 Z" id="Path-6" stroke="#8E8E8E" fill="#8E8E8E"></path>
                <path d="M41.4893952,44 C42.1066654,43.1179348 42.4450937,42.4715417 42.5046801,42.0608206 C42.6927341,40.7645892 42.1590379,39.6601288 42.5046801,38.9896138 C43.0146015,38.000412 43.8300671,37.4320897 44.9510771,37.284647 C43.7855823,37.2937778 42.7120492,36.964621 41.7304777,36.2971766 C41.1875475,35.9279974 40.9572116,34.8877457 40.2540142,34.1643311 C39.8752652,33.774693 39.1239271,33.239278 38,32.5580862 C39.145235,32.5257347 39.896573,32.4169392 40.2540142,32.2316996 C41.3386451,31.6696027 41.4893952,31.0020836 42.5046801,30.4917269 C43.6237404,29.929205 44.584611,30.0993239 45.3872918,31.0020836 C44.6068441,29.0043931 44.6882088,27.4848655 45.6313858,26.443501 C45.983493,26.0547385 46.8019289,25.8170844 47.4643398,25.0498103 C47.7232024,24.7499683 48.2350891,24.0666982 49,23 L49,38.9896138 C48.3614684,40.3758578 47.5466105,41.3995934 46.5554261,42.0608206 C45.927027,42.4800309 45.0867499,42.4652203 43.8976489,42.8725057 C43.4399905,43.0292607 42.6372393,43.4050922 41.4893952,44 Z" id="Path-6" stroke="#FFFFFF" fill="#FFFFFF" transform="translate(43.500000, 33.500000) scale(-1, 1) translate(-43.500000, -33.500000) "></path>
                <path d="M29.8066129,44 C30.4799986,43.1094474 30.8491931,42.4568345 30.9141965,42.0421614 C31.1193463,40.7334573 30.5371322,39.6183695 30.9141965,38.9414027 C31.4704743,37.9426825 32.3600733,37.3688917 33.5829932,37.2200303 C32.3115443,37.2292489 31.1404173,36.8969249 30.069612,36.2230582 C29.4773245,35.8503267 29.226049,34.8000654 28.4589245,34.0696899 C28.0457438,33.6763026 27.2261023,33.1357357 26,32.4479893 C27.2493472,32.4153266 28.0689887,32.3054842 28.4589245,32.1184622 C29.6421583,31.5509567 29.8066129,30.8770145 30.9141965,30.361747 C32.1349895,29.7938124 33.183212,29.9655682 34.0588637,30.8770145 C33.2074663,28.8601017 33.2962278,27.3259529 34.3251482,26.2745682 C34.7092651,25.8820649 35.6021042,25.642124 36.3247343,24.867467 C36.6071299,24.5647399 36.9642806,23.9422509 37.3961865,23 L38,38.9414027 C37.3034201,40.3409855 36.4144841,41.3745717 35.3331922,42.0421614 C34.6476658,42.4654053 33.7309999,42.4504523 32.4337988,42.8616567 C31.9345351,43.0199201 31.0588065,43.3993678 29.8066129,44 Z" id="Path-6" stroke="#FFFFFF" fill="#FFFFFF"></path>
                <circle id="Oval" stroke="#979797" fill="#D8D8D8" cx="38" cy="34" r="3.5"></circle>
            </g>
        </g>
    </g>
</svg>