<?xml version="1.0" encoding="UTF-8"?>
<svg width="139px" height="75px" viewBox="0 0 139 75" version="1.1" xmlns="http://www.w3.org/2000/svg" xmlns:xlink="http://www.w3.org/1999/xlink">
    <title>motif_seahorse</title>
    <g id="Page-1" stroke="none" stroke-width="1" fill="none" fill-rule="evenodd">
        <g id="Artboard-1" transform="translate(-596.000000, -159.000000)" stroke="#FFFFFF">
            <g id="motif_seahorse" transform="translate(597.000000, 160.000000)">
                <path d="M28.2054914,73.3859681 L20.4579312,61.7186628 C14.93079,58.3830615 11.044443,55.6242446 8.79889029,53.4422121 C6.55333758,51.2601795 5.05753987,48.7890969 4.31149715,46.0289643 C3.79520157,42.6273673 3.79520157,40.0858581 4.31149715,38.4044366 C4.82779273,36.7230152 6.32359044,34.3931553 8.79889029,31.414857 L2.84217094e-14,21.5847237 C5.47444822,22.0446987 9.1873761,22.190464 11.1387836,22.0220198 C13.0901911,21.8535755 14.5079721,21.2649306 15.3921266,20.2560851 C16.0579606,19.4897603 16.5392553,18.7822529 16.8360107,18.1335629 C17.1327661,17.4848729 17.4588849,16.4274214 17.8143671,14.9612085 C18.1945761,15.4604621 18.4892154,15.8457465 18.6982848,16.1170618 C18.9073543,16.388377 19.4939031,16.650914 20.4579312,16.9046726 C21.0526665,16.8563646 21.4901646,16.754962 21.7704256,16.6004649 C22.0506866,16.4459679 22.4076055,16.2065876 22.8411823,15.8823242 C23.2483627,15.5933139 23.549513,15.2862753 23.7446332,14.9612085 C23.9397535,14.6361417 24.2247111,14.0041733 24.599506,13.0653034 C24.8973942,13.7716103 25.3771172,14.2930196 26.038675,14.6295312 C26.7002328,14.9660428 27.6379942,15.0766019 28.851959,14.9612085 C29.9184425,14.7325886 30.7589344,14.2892143 31.3734347,13.6310855 C31.987935,12.9729567 32.6309439,12.1140074 33.3024612,11.0542376 C33.4827154,11.8059105 33.7511972,12.4762658 34.1079067,13.0653034 C34.4646162,13.654341 35.2951328,13.9533965 36.5994566,13.9624698 C37.9439397,13.8006201 38.9013014,13.346828 39.4715415,12.6010937 C40.0417816,11.8553594 40.7185347,10.6619119 41.5018007,9.02075114 C42.2594269,10.2220753 43.0098619,11.1139939 43.7531058,11.6965071 C44.4963496,12.2790203 45.8462101,12.5805491 47.8026873,12.6010937 C49.0367339,12.5397377 49.9911409,12.2382088 50.6659082,11.6965071 C51.3406756,11.1548054 52.3789774,9.95843991 53.7808136,8.10741068 C54.0135386,8.94379482 54.6272323,9.56326332 55.6218945,9.96581619 C56.6165568,10.3683691 57.6233919,10.4757165 58.6423999,10.2878585 C59.7737376,10.0731636 60.7908772,9.75265001 61.6938185,9.32631765 C62.5967599,8.89998528 63.2627556,8.10028174 63.6918056,6.92720701 C63.972064,7.6864053 64.4846253,8.27605665 65.2294896,8.69616105 C65.974354,9.11626545 67.0363109,9.32631765 68.4153603,9.32631765 C69.8054306,9.36700435 70.7877742,9.15695215 71.3623911,8.69616105 C71.9370079,8.23536994 72.6700958,7.40286117 73.5616546,6.19863474 C74.3509222,8.06260035 75.1409676,9.21345705 75.9317907,9.65120482 C76.7226139,10.0889526 78.0612861,10.3011705 79.9478076,10.2878585 C81.2984141,10.0988214 82.3268159,9.77830776 83.033013,9.32631765 C83.7392102,8.87432753 84.6739755,7.97699133 85.8373089,6.63430904 C86.5742468,7.70529217 87.2346939,8.39257617 87.8186503,8.69616105 C88.4026068,8.99974592 89.4921039,8.99974592 91.0871418,8.69616105 C91.8135488,8.5157766 92.6045,8.22617633 93.4599957,7.82736024 C94.3154913,7.42854415 95.254588,6.80003896 96.2772857,5.94184466 C97.2509253,6.95309302 98.0700391,7.58159822 98.7346272,7.82736024 C99.3992152,8.07312226 100.493582,8.07312226 102.017726,7.82736024 C103.684683,7.18675725 104.779842,6.55825206 105.303203,5.94184466 C105.826564,5.32543726 106.31921,4.22261029 106.78114,2.63336374 C107.864617,3.38962301 108.744671,3.84449823 109.421302,3.9979894 C110.097933,4.15148057 111.223093,4.15148057 112.796783,3.9979894 C113.895193,3.6677713 114.782005,3.21289608 115.457217,2.63336374 C116.132429,2.05383139 116.942008,1.17604348 117.885952,0 C118.043235,0.845825384 118.583312,1.7236133 119.506184,2.63336374 C120.429056,3.54311418 121.539162,3.9979894 122.836503,3.9979894 C124.017212,3.9979894 125.171276,3.84877329 126.298695,3.55034107 C127.426114,3.25190885 128.571056,2.66072852 129.733522,1.7768001 C129.71727,2.58516397 129.933827,3.48142903 130.383193,4.46559528 C130.832559,5.44976153 131.408488,6.27029878 132.110981,6.92720701 C132.929682,7.57751256 133.644719,7.97091378 134.256094,8.10741068 C134.867469,8.24390759 135.725678,8.24390759 136.830721,8.10741068 L131.057241,14.6295312 C132.833429,18.0014892 133.899713,20.5386315 134.256094,22.2409579 C134.612475,23.9432844 134.612475,26.4994699 134.256094,29.9095146 C133.594418,33.9858193 132.879381,36.81746 132.110981,38.4044366 C131.342581,39.9914133 129.860965,41.6965257 127.66613,43.5197739 C127.605728,46.0296516 127.149916,47.8464255 126.298695,48.9700953 C125.447474,50.0937652 123.818296,51.2260445 121.411162,52.3669333 C118.765953,53.1896077 116.444816,53.1896077 114.447751,52.3669333 C112.450686,51.5442589 111.094514,50.4119795 110.379236,48.9700953 C109.869432,46.8209013 109.869432,45.2720219 110.379236,44.323457 C110.889039,43.3748922 112.245211,42.400414 114.447751,41.4000226 C117.037549,40.3461724 118.984708,39.8192473 120.289229,39.8192473 C121.593749,39.8192473 123.201608,40.3461724 125.112807,41.4000226 C126.829692,39.9484493 127.947481,38.5689444 128.466173,37.261508 C128.984866,35.9540715 129.407315,33.5034071 129.733522,29.9095146 C129.552259,26.9271824 129.12981,24.8975355 128.466173,23.8205738 C127.802537,22.7436121 126.158364,21.7873696 123.533656,20.9518461 C120.241543,20.9170208 117.82828,21.3467247 116.293867,22.2409579 C114.759453,23.1351912 112.787909,25.6913767 110.379236,29.9095146 C108.323689,34.5346711 106.511231,38.1260917 104.941861,40.6837762 C103.372492,43.2414608 100.843306,45.7053139 97.3543049,48.0753357 C91.0453344,50.8145582 86.2715704,52.2450907 83.033013,52.3669333 C79.7944557,52.4887759 74.9219048,51.7219239 68.4153603,50.0663773 C62.9714331,48.3379276 58.8790161,46.9921233 56.1381093,46.0289643 C53.3972024,45.0658054 49.2688679,43.5228248 43.7531058,41.4000226 C40.4902583,41.1518856 38.1057086,41.1518856 36.5994566,41.4000226 C35.0932046,41.6481596 33.1886192,42.3547434 30.8857002,43.5197739 C30.5572745,46.1114885 30.1689397,47.9282623 29.7206961,48.9700953 C28.9029909,50.8706514 26.9509345,52.5038731 26.6821951,53.4422121 C26.1924821,55.1521089 26.1924821,56.7369924 26.6821951,58.1968628 C27.756532,60.9849562 28.7693657,63.0248558 29.7206961,64.3165614 C30.6720264,65.6082671 32.5127165,67.4428499 35.2427662,69.82031 C34.286077,71.8396132 33.4026157,73.0281659 32.5923822,73.3859681 C31.7821487,73.7437702 30.3198518,73.7437702 28.2054914,73.3859681 Z" stroke-width="0.3" fill="#8E8E8E"></path>
                <circle id="Oval" fill="#FFFFFF" cx="14.5" cy="49.5" r="3"></circle>
                <path d="M11,37.3859829 C17.2642429,34.6421062 21.9998146,34.1746126 25.2067151,35.9835022 C28.4136157,37.7923917 29.7995948,42.4330152 29.3646523,49.9053725" id="Path-29" stroke-width="0.3"></path>
                <path d="M15.9897924,19.6559822 C16.4771164,20.1442976 17.3661441,20.7524813 18.6568756,21.4805334 C19.6586837,22.0456149 19.7021694,24.5481895 19.6149253,25.9946617 C19.528588,27.426098 20.2833458,28.427106 18.6568756,29.4832543 C18.3641818,29.673315 16.8301026,30.7661428 16.5056084,32.0076099 C16.1058302,33.5371028 16.8740642,35.2620422 15.9897924,35.437879 C15.1112495,35.6125765 14.9915444,33.2228923 12.467453,31.414857 C12.0392116,31.1081029 10.8163573,31.1081029 8.79889029,31.414857" id="Path-29" stroke-width="0.3"></path>
                <path d="M28.5953148,40.5406137 L30.7801012,40.5406137 C37.7028439,37.1712467 42.8998106,35.5141969 46.3710014,35.5694643 C72.8091374,35.9904053 68.6519431,42.104846 85.7922829,41.2383766 C94.994295,40.7732013 103.918027,35.7452861 112.563479,26.1546309" id="Path-29" stroke-width="0.3"></path>
                <path d="M19.7160957,24.3859829 C21.9629512,23.0638708 23.7685061,22.1828855 25.1327603,21.7430268 C29.9291765,20.196581 37.4375783,19.9528845 39.8992646,19.6559822 C47.7614808,18.7077258 53.4847266,17.0916427 67.2206231,16.512991 C79.0348419,16.0152938 86.7992211,18.8706202 97.171249,17.442957 C107.543277,16.0152938 118.339248,9.97653152 122.47784,10.2368372 C126.828028,10.5104517 130.458308,13.2227792 131.057241,14.6295312 C132.979793,19.1451478 132.56102,23.9076056 129.800921,28.9169045" id="Path-29" stroke-width="0.3"></path>
                <path d="M25.697697,21.4332224 C25.6242506,20.1199709 25.4934013,18.8478958 25.305149,17.616997 C25.1168968,16.3860982 24.7977952,15.053082 24.3478443,13.6179485" id="Path-29" stroke-width="0.3"></path>
                <path d="M34.3042892,20.0575658 C34.3196617,18.2547121 34.2332219,16.7378358 34.0449696,15.506937 C33.8567174,14.2760383 33.5612846,12.9006257 33.1586713,11.3806993" id="Path-29" stroke-width="0.3"></path>
                <path d="M43.2104624,19.1504048 C43.1621488,17.3472305 43.0438658,15.8301939 42.8556136,14.5992951 C42.6673614,13.3683963 42.1614106,11.6758725 41.3377613,9.52172372" id="Path-29" stroke-width="0.3"></path>
                <path d="M54.9363505,17.5255854 C55.1246028,15.5812891 55.1246028,13.9936915 54.9363505,12.7627927 C54.7480983,11.5318939 54.4359814,9.94429636 54,8" id="Path-29" stroke-width="0.3"></path>
                <path d="M63.5165377,16.7350907 C63.7016808,14.6569959 63.7016808,13.1323114 63.5165377,12.1610372 C63.3313945,11.189763 63.0242198,10.0400579 62.5950137,8.71192188" id="Path-29" stroke-width="0.3"></path>
                <path d="M75.6140651,16.7350907 C75.791215,14.9969029 75.791215,13.4779525 75.6140651,12.1782397 C75.4369152,10.878527 75.0756238,9.48578037 74.5301907,8" id="Path-29" stroke-width="0.3"></path>
                <path d="M87.1595517,17.7046569 C87.0249812,15.0870639 86.8691211,13.128411 86.6919712,11.8286982 C86.5148213,10.5289854 86.1536204,8.89443621 85.6083684,6.92505067" id="Path-29" stroke-width="0.3" stroke-linecap="round"></path>
                <line x1="96.7755916" y1="17.4586967" x2="96" y2="6" id="Path-29" stroke-width="0.3" stroke-linecap="round"></line>
                <line x1="107.571065" y1="14.8329257" x2="106.78114" y2="2.63336374" id="Path-29" stroke-width="0.3" stroke-linecap="round"></line>
                <line x1="115.508655" y1="12.0025539" x2="117.5" y2="0.5" id="Path-29" stroke-width="0.3" stroke-linecap="round"></line>
                <line x1="124.450331" y1="10.4847016" x2="128.675575" y2="2.63336374" id="Path-29" stroke-width="0.3" stroke-linecap="round"></line>
                <path d="M21.3348325,23.3992566 C21.2713995,22.36335 21.145557,21.2299473 20.9573047,19.9990485 C20.7690525,18.7681497 20.3553162,17.6737586 19.7160957,16.7158751" id="Path-29" stroke-width="0.3"></path>
            </g>
        </g>
    </g>
</svg>