<svg xmlns="http://www.w3.org/2000/svg" fill-rule="evenodd" stroke-linecap="round" stroke-linejoin="round" stroke-miterlimit="1.5" clip-rule="evenodd" viewBox="0 0 188 182" width="188" height="182"><path fill="#8e8e8e" stroke="#fff" stroke-width=".9" d="M104.42 84.57s11.156-10.827 28.022-13.284c7.055-1.027 23.663 5.663 34.027 5.406 6.487-.161 20.576-4.485 20.576-4.485s-15.588 19.508-38.428 28.73c-34.999 14.131-44.117 4.65-44.117 4.65s11.52 14.054 17.861 25.639c10.429 19.054 10.833 41.684 10.833 41.684s-27.32-8.61-38.231-26.77c-8.48-14.105-6.47-32.321-6.47-32.321s-5.972 17.589-19.863 33.131c-20.044 22.43-45.305 34.06-45.305 34.06s10.273-9.35 13.196-22.68c2.447-11.16 1.635-17.945 5.225-27.075 7.6-19.33 33.296-30.413 33.296-30.413s-15.961 3.525-33.373-5.433C11.96 80.124.45 43.562.45 43.562s8.858 8.24 21.547 13.07c14.877 5.663 20.655 1.679 33.581 7.147 9.321 3.943 24.476 17.962 24.476 17.962s-.196-8.451-.936-14.457c-.669-5.428-4.171-14.53-2.755-24.976C79.893 16.246 99.43.449 99.43.449s-.658 17.511.374 22.921c1.589 8.328 8.733 20.095 9.417 31.438.685 11.343-4.801 29.762-4.801 29.762s-5.662-5.447-12.33-5.949c-7.497-.564-12.036 3.12-12.036 3.12s-4.24 2.621-5.6 7.24c-1.511 5.132.588 11.861.588 11.861s.482 4.085 4.677 7.936c3.659 3.359 8.774 5.041 8.774 5.041s3.865 1.514 8.366-.657c4.812-2.322 7.641-7.575 7.641-7.575s3.15-3.477 3.118-9.378c-.039-7.185-3.198-11.639-3.198-11.639z"/></svg>