<svg xmlns="http://www.w3.org/2000/svg" fill-rule="evenodd" stroke-linecap="round" stroke-linejoin="round" stroke-miterlimit="1.5" clip-rule="evenodd" viewBox="0 0 226 238" width="226" height="238"><path fill="#8e8e8e" stroke="#fff" stroke-width=".9" d="M103.07.451S83 17.783 77.1 44.508c-3.94 17.849 3.93 64.481 3.93 64.481S69 96.875 49.25 98.674C23.84 100.99.45 126.163.45 126.163s17.64 25.068 49.76 27.507c21.77 1.65 36.7-9.149 36.7-9.149s-6.57 19.699 1.1 39.649c12.89 33.57 36.56 53.32 36.56 53.32s14.34-8.3 16.01-49.76c1.28-31.93-9.88-47.875-9.88-47.875s9.41 12.866 41.13 5.718c20.81-4.691 53.51-30.822 53.51-30.822s-32.1-15.63-57.59-16.984c-28.14-1.496-36.15 10.001-36.15 10.001s7.69-28.944 6.94-43.661C136.28 19.831 103.07.451 103.07.451z"/></svg>