<?xml version="1.0" encoding="UTF-8"?>
<svg width="192px" height="111px" viewBox="0 0 192 111" version="1.1" xmlns="http://www.w3.org/2000/svg" xmlns:xlink="http://www.w3.org/1999/xlink">
    <title>motif_marlin</title>
    <g id="Page-1" stroke="none" stroke-width="1" fill="none" fill-rule="evenodd">
        <g id="Artboard-1" transform="translate(-564.000000, -257.000000)" stroke-width="0.3">
            <g id="motif_marlin" transform="translate(565.000000, 258.000000)">
                <path d="M4.26325641e-14,69.3055655 C11.2188701,68.8850266 19.5570832,68.2895556 25.0146394,67.5191525 C30.4721956,66.7487493 34.940124,65.5364712 38.4184246,63.8823183 L63.8279122,49.5427437 C68.6552271,36.7538359 72.5534676,27.2321207 75.5226336,20.9775982 C78.4917996,14.7230757 81.1608038,10.526837 83.5296461,8.38888205 C85.5287866,6.70861961 87.566522,5.14846343 89.6428522,3.70841351 C91.7191823,2.26836359 95.0400996,1.03222575 99.6056041,-7.10542736e-15 C99.3408826,2.05040318 99.3408826,3.28654101 99.6056041,3.70841351 C99.8703255,4.13028601 100.645992,4.13028601 101.932602,3.70841351 C101.782174,5.38820615 101.782174,6.53656984 101.932602,7.15350459 C102.08303,7.77043935 102.520154,8.41480581 103.243973,9.08660397 C102.321144,10.943265 101.88402,12.2533387 101.932602,13.0168251 C101.981184,13.7803115 102.55962,14.6910198 103.66791,15.74895 C103.22743,17.4721112 103.086118,18.6259423 103.243973,19.2104431 C103.401828,19.794944 104.013839,20.3839957 105.080004,20.9775982 C104.849139,22.5260426 104.849139,23.5769648 105.080004,24.1303648 C105.310869,24.6837649 105.995546,25.2740666 107.134036,25.90127 C106.862157,27.4869726 106.862157,28.6388283 107.134036,29.3568372 C107.405915,30.0748461 108.138288,30.8571263 109.331156,31.7036779 C109.140407,33.1109545 109.140407,34.0388095 109.331156,34.4872427 C109.521906,34.9356758 110.080795,35.3217166 111.007825,35.6453649 C110.703573,37.4017256 110.703573,38.6123028 111.007825,39.2770962 C111.312078,39.9418897 112.099162,40.4510953 113.369078,40.804713 C113.054192,42.6854059 113.054192,44.0345735 113.369078,44.852216 C113.683964,45.6698585 114.466933,46.3537734 115.717986,46.9039609 C115.353711,49.035553 115.353711,50.4050236 115.717986,51.0123725 C116.08226,51.6197214 117.092489,51.9345886 118.748671,51.9569741 C118.997611,53.3163385 119.326749,54.2007063 119.736086,54.6100776 C120.145422,55.0194488 120.926301,55.2451914 122.078722,55.2873054 C122.565322,57.0252682 123.006374,58.20759 123.401876,58.8342709 C123.797379,59.4609517 124.429123,59.9784923 125.297107,60.3868927 L126.311357,63.489123 C132.514454,64.3778028 136.996289,64.3778028 139.756864,63.489123 C142.517439,62.6004432 145.802542,60.3029579 149.612173,56.5966672 C149.235858,58.9099954 149.235858,60.619231 149.612173,61.7243741 C149.988488,62.8295171 151.112252,64.2176635 152.983467,65.8888133 C158.169302,65.2666094 163.181802,63.878463 168.020964,61.7243741 C172.860127,59.5702852 180.088115,55.5097418 189.704929,49.5427437 C186.328819,56.9795513 183.96825,62.4282412 182.62322,65.8888133 C181.278191,69.3493854 180.177124,72.8070006 179.320019,76.261659 C176.957454,79.2640478 175.658647,81.5655573 175.423598,83.1661874 C175.188549,84.7668176 175.812312,87.0622128 177.294886,90.052373 L161.247009,76.261659 L154.669114,78.7685259 C154.301957,80.709349 154.301957,82.1752362 154.669114,83.1661874 C155.036271,84.1571387 156.02209,85.3519627 157.626572,86.7506595 L143.785917,81.5848583 L128.847122,83.9736065 C128.465772,85.9355784 128.20868,87.4705609 128.075846,88.5785541 C127.943012,89.6865472 127.813856,91.3733166 127.68838,93.638862 C127.787743,94.8530432 128.083653,95.8309096 128.576112,96.5724613 C129.068571,97.3140131 130.035306,98.2374562 131.476317,99.3427909 C128.935273,99.3593091 127.21362,99.0777244 126.311357,98.4980366 C125.409094,97.9183487 124.439268,96.470705 123.401876,94.1551054 C122.078272,91.4805024 120.856342,89.621652 119.736086,88.5785541 C118.615829,87.5354561 116.70794,86.4800563 114.012418,85.4123545 L81.4033766,87.8315774 C81.3879578,91.2066021 82.5980111,94.3954723 85.0335367,97.3981879 C86.4829989,99.1852037 88.4853776,101.769821 91.2206459,104.29739 C92.4611742,105.44372 94.7450522,107.084642 98.0722799,109.220155 C92.3290349,108.145451 87.8051435,106.257068 84.5006055,103.555008 C82.2974181,101.753502 80.3537625,97.9695442 78.1121051,93.638862 C77.1731235,91.8248334 76.4214604,89.1537517 75.2176571,87.448685 C75.0624462,87.2288443 74.126335,87.1398623 72.4093236,87.1817391 C73.9368076,92.5277087 75.3071323,96.4578741 76.5202977,98.9722354 C77.7334631,101.486597 80.0699126,104.759855 83.5296461,108.79201 C79.367939,107.049281 76.2601383,104.791535 74.206244,102.018772 C72.1523497,99.24601 69.6976539,93.8637379 66.8421564,85.8719561 L54.3433745,80.4538924 L36.9142666,76.261659 L26.4081515,75.3467297 L45.4151687,70.5717585 L4.26325641e-14,69.3055655 Z" id="Path-18" stroke="#8E8E8E" fill="#8E8E8E"></path>
                <circle id="Oval" stroke="#FFFFFF" fill="#FFFFFF" cx="54.5" cy="62.5" r="2.35"></circle>
                <path d="M63.8279122,49.5427437 C73.662459,47.9118882 80.9527846,47.2639129 85.6988891,47.5988177 C90.4449936,47.9337225 96.7630996,49.5419653 104.653207,52.423546 C108.6693,54.0478727 112.009882,55.5408548 114.674953,56.9024922 C117.340024,58.2641296 121.218825,60.4596732 126.311357,63.489123" id="Path-28" stroke="#FFFFFF"></path>
                <path d="M54.5,83.3223213 C61.795363,79.2297335 67.8506649,76.9785994 72.6659059,76.5689192 C77.4811469,76.1592389 82.7382403,76.1592389 88.4371861,76.5689192 C93.9520608,76.7623498 98.9373716,77.0404878 103.393118,77.403333 C107.848865,77.7661782 111.388632,78.1305245 114.012418,78.4963719 L128.847122,79.9351199 L143.785917,82.3238681 C148.601341,83.5008251 152.229074,84.4396026 154.669114,85.1402005 C157.109154,85.8407984 159.301786,86.6764207 161.247009,87.6470674" id="Path-28" stroke="#FFFFFF" transform="translate(107.873505, 81.954363) scale(1, -1) translate(-107.873505, -81.954363) "></path>
                <path d="M70.3134742,48.5292356 C71.6329934,46.5519943 72.7334757,44.4635705 73.614921,42.2639643 C75.229832,38.2340285 75.4549383,34.1786682 76.3103997,32.0564358 C77.5226731,29.0490228 79.1763654,25.8809874 81.2714768,22.5523296 C84.5349278,17.4732016 87.2216305,13.8493262 89.331585,11.6807035 C91.4415394,9.51208084 94.8662124,6.85465084 99.6056041,3.70841351" id="Path-29" stroke="#FFFFFF"></path>
                <path d="M75.175565,47.9068795 C76.080288,46.7577886 76.9733722,45.0834401 77.8548176,42.8838339 C79.4697285,38.853898 79.1163978,37.7668948 80.0563966,34.8506603 C81.1597727,31.4275674 82.460308,28.4253194 83.9580026,25.8439161 C87.2214536,20.764788 89.9081564,17.1409127 92.0181108,14.97229 C94.1280652,12.8036673 97.4447047,10.3300433 101.968029,7.55141797" id="Path-29" stroke="#FFFFFF"></path>
                <path d="M79.6628967,47.5132326 C81.2140906,45.1728819 82.383613,42.8601332 83.1714636,40.5749864 C83.825439,38.6781428 84.5211868,34.5446179 86.245717,30.7566163 C88.3944198,26.036902 91.7048195,21.6038605 93.4605872,19.7992728 C95.5705417,17.6306502 98.4063556,15.6145076 101.968029,13.7508453" id="Path-29" stroke="#FFFFFF"></path>
                <path d="M83.2035561,47.5132316 C84.0691255,46.8585439 84.9081074,45.3805855 85.7205019,43.0793564 C86.3948504,41.1691631 86.0211044,40.5473343 87.7993586,36.7326736 C90.0149995,31.9797429 93.4170625,27.6706705 95.2275273,25.8533825 C97.4032128,23.6694975 100.1427,21.6612875 103.445988,19.8287524" id="Path-29" stroke="#FFFFFF"></path>
                <path d="M88.098995,47.9068795 C89.1689601,46.5936439 89.8382957,45.5696708 90.1070017,44.83496 C91.1592636,41.9578075 91.9506755,38.3417997 92.5646106,37.0969606 C94.515829,33.1405925 97.021327,31.2410406 97.6707133,30.6320389 C99.605379,28.8176882 102.795952,26.9403419 107.242432,25" id="Path-29" stroke="#FFFFFF"></path>
                <path d="M93.3247719,48.8315774 C94.0787237,46.4806409 94.6603446,44.8902262 95.0696346,44.0603335 C97.020853,40.1039654 100.084718,36.5600369 100.734104,35.9510353 C102.66877,34.1366846 105.138547,32.4863395 108.143437,31" id="Path-29" stroke="#FFFFFF"></path>
                <path d="M96.4637818,49.6845661 C97.4102462,47.7966889 98.1443915,46.4914138 98.6662179,45.7687408 C101.164042,42.3095248 102.842667,41.1323214 103.5,40.5517207 C105.45834,38.8219824 107.732492,37.1768624 110.322455,35.6163608" id="Path-29" stroke="#FFFFFF"></path>
                <path d="M101.321439,51.4174667 C103.445796,48.5373714 105.224919,46.4444135 106.658808,45.138593 C108.092697,43.8327725 110.264409,42.4426898 113.173945,40.9683449" id="Path-29" stroke="#FFFFFF"></path>
                <path d="M108.143437,53.7651378 C108.609379,52.3505772 109.559295,50.9903866 110.993184,49.6845661 C112.427072,48.3787457 113.932329,47.5079723 115.508954,47.0722462" id="Path-29" stroke="#FFFFFF"></path>
                <path d="M114.425576,56.708216 C115.072303,55.309457 115.678805,54.328431 116.245083,53.7651378 C116.811361,53.2018446 117.612656,52.6401242 118.648966,52.0799766" id="Path-29" stroke="#FFFFFF"></path>
                <path d="M54.8494681,80.5864051 C59.0195939,73.7905264 61.6183124,68.6165828 62.6456239,65.0645744 C63.6729353,61.512566 64.0670314,56.3386224 63.8279122,49.5427437" id="Path-29" stroke="#FFFFFF"></path>
                <path d="M56,81.0436613 C60.1701257,74.2477826 62.7688443,69.0738391 63.7961558,65.5218307 C64.8234672,61.9698222 65.2090461,56.6434599 64.9528923,49.5427437" id="Path-29" stroke="#FFFFFF"></path>
                <path d="M64.4084481,62.945704 C69.8508764,62.3152347 74.2196067,62 77.5146391,62 C80.8096715,62 85.9017608,62.6752026 92.7909069,64.0256079" id="Path-29" stroke="#FFFFFF"></path>
                <path d="M61.6467632,70.945704 C67.55453,70.3152347 72.2147695,70 75.6274816,70 C79.0401938,70 84.182104,70.6304693 91.0532124,71.891408" id="Path-29" stroke="#FFFFFF"></path>
                <path d="M96.7623676,64.7634889 C100.92864,64.8394797 104.558709,65.1650386 107.652574,65.7401657 C110.746439,66.3152927 114.138599,67.4949009 117.829054,69.2789901" id="Path-29" stroke="#FFFFFF"></path>
                <path d="M95,72 C99.1662724,72.0759908 102.796341,72.4015497 105.890207,72.9766768 C108.984072,73.5518038 112.533093,74.4879381 116.537271,75.7850795" id="Path-29" stroke="#FFFFFF"></path>
                <path d="M119.350775,76.3745706 C123.086828,76.6242844 126.559267,76.7491413 129.768093,76.7491413 C132.976918,76.7491413 136.270025,76.7491413 139.647412,76.7491413" id="Path-29" stroke="#FFFFFF"></path>
                <path d="M120.54094,70.6710319 C123.906483,71.8126945 127.199992,72.4496477 130.421467,72.5818914 C133.642942,72.7141351 136.936451,72.6480132 140.301994,72.3835258" id="Path-29" stroke="#FFFFFF"></path>
                <path d="M142.914619,76.3530771 C146.640927,76.3980209 150.120918,76.2282291 153.354591,75.8437019 C156.588264,75.4591746 159.32767,74.4717404 161.572808,72.8813994" id="Path-29" stroke="#FFFFFF"></path>
                <path d="M143.389903,72.0254941 C146.992264,71.8210472 150.410281,71.5265602 153.643955,71.1420329 C156.877628,70.7575056 159.447735,70.311939 161.354277,69.8053331" id="Path-29" stroke="#FFFFFF"></path>
                <path d="M181.438913,67 L172.700833,71.6595226 C174.595467,69.5593172 176.845896,67.1171979 179.452122,64.3331646 C182.058347,61.5491314 185.249095,56.8688199 189.024364,50.2922302 L181.438913,67 Z" id="Path-29" stroke="#FFFFFF" fill="#FFFFFF"></path>
                <path d="M83.8254931,87.8315774 C88.3144459,79.2658297 91.0810188,72.7658297 92.1252118,68.3315774 C93.1694048,63.897325 93.3282636,57.397325 92.6017883,48.8315774" id="Path-29" stroke="#FFFFFF"></path>
                <path d="M88.4371861,87.3398072 C92.3021949,79.5967267 94.7466725,73.4700087 95.770619,68.9596532 C96.7945654,64.4492977 97.0256197,58.0242687 96.4637818,49.6845661" id="Path-29" stroke="#FFFFFF"></path>
                <path d="M111.997376,85.6517396 C114.403217,82.0677775 116.118111,78.0206187 117.142057,73.5102632 C118.166004,68.9999077 118.289971,63.9881584 117.513959,58.4750153" id="Path-29" stroke="#FFFFFF"></path>
                <path d="M114.425576,85.3522842 C117.090986,82.070385 118.935664,78.1742577 119.95961,73.6639022 C120.983557,69.1535467 120.983557,64.5360788 119.95961,59.8114985" id="Path-29" stroke="#FFFFFF"></path>
                <path d="M136.596396,82.7546118 C138.335636,80.3240912 139.448976,77.7843741 139.936415,75.1354606 C140.423854,72.486547 140.423854,69.7747269 139.936415,67" id="Path-29" stroke="#FFFFFF"></path>
                <path d="M140.301994,82.0627527 C141.629441,80.0934715 142.536884,77.7843741 143.024323,75.1354606 C143.511762,72.486547 143.511762,69.7753803 143.024323,67.0019603" id="Path-29" stroke="#FFFFFF"></path>
                <path d="M161.247009,76.261659 C161.482713,74.119362 161.591313,72.4818269 161.572808,71.3490535 C161.554304,70.2162801 161.358434,67.8055141 160.985199,64.1167555" id="Path-29" stroke="#FFFFFF"></path>
                <path d="M118.648966,59.0888853 C119.202612,58.074489 119.676418,57.3606784 120.070385,56.9474532 C120.464351,56.534228 121.130711,56.0521361 122.069464,55.5011773" id="Path-29" stroke="#FFFFFF"></path>
                <path d="M126.311357,63.489123 C129.43613,64.9268419 131.890533,65.8289552 133.674567,66.195463 C135.128361,66.4941271 138.551888,66.9619221 142.221346,67 C145.306392,67.0320134 148.05457,66.6623042 148.921894,66.5932905 C150.18786,66.4925566 151.541717,66.2577308 152.983467,65.8888133 L160.985199,64.3331646" id="Path-30" stroke="#FFFFFF"></path>
            </g>
        </g>
    </g>
</svg>