<?xml version="1.0" encoding="UTF-8"?>
<svg width="50px" height="51px" viewBox="0 0 50 51" version="1.1" xmlns="http://www.w3.org/2000/svg" xmlns:xlink="http://www.w3.org/1999/xlink">
    <title>motif_flowerp</title>
    <g id="Page-1" stroke="none" stroke-width="1" fill="none" fill-rule="evenodd">
        <g id="Artboard-1" transform="translate(-199.000000, -167.000000)">
            <g id="motif_flowerp" transform="translate(200.617037, 168.989869)">
                <path d="M9.53266074,33.163559 C7.48924623,34.8440692 5.94336847,35.7509532 4.89502746,35.8842109 C3.84668645,36.0174686 2.30080869,35.5035868 0.257394172,34.3425655 C0.156373172,31.4135006 0.330698803,29.4081338 0.780371066,28.3264649 C1.23004333,27.244796 2.38186749,26.0601618 4.23584356,24.7725624 C3.72751966,24.0714564 3.38483759,23.5267309 3.20779735,23.1383859 C3.0307571,22.7500409 2.87781472,22.2075939 2.7489702,21.5110448 C2.99333792,20.9179414 3.23975459,20.4755762 3.48822019,20.1839492 C3.73668579,19.8923223 4.20562155,19.4950701 4.89502746,18.9921927 C2.52640019,15.9613725 1.05903835,13.7483615 0.492941922,12.3531596 C-0.073154506,10.9579577 -0.151670423,9.07695537 0.257394172,6.7101527 C2.62874548,6.10158525 4.4687475,5.79730153 5.77740023,5.79730153 C7.08605296,5.79730153 9.2488506,6.98441537 12.2657931,9.35864306 C12.2657931,8.39589331 12.2657931,7.7579307 12.2657931,7.44475524 C12.2657931,7.13157978 12.542088,6.44788991 13.0946778,5.39368564 C14.3800845,5.51930412 15.1519519,5.65384275 15.4102799,5.79730153 C15.6686079,5.94076031 16.3856395,6.24504403 17.5613747,6.7101527 C19.7514949,4.8167389 21.3917608,3.43317554 22.4821722,2.55946263 C23.5725836,1.68574971 25.5674031,0.832595497 28.4666309,-3.55271368e-15 C30.1830125,2.46103151 31.1703908,4.39346535 31.4287659,5.79730153 C31.6871409,7.2011377 31.586647,8.80600475 31.1272841,10.6119027 C31.7730648,10.4686703 32.311048,10.3970541 32.7412337,10.3970541 C33.1714194,10.3970541 33.8184447,10.5402052 34.6823097,10.8265075 C35.1919566,11.73431 35.3409764,12.3923094 35.1293689,12.8005056 C34.9177614,13.2087018 34.6870078,13.7785769 34.4371079,14.510131 C37.7398051,14.5868707 40.0619754,14.774123 41.4036186,15.0718881 C42.7452619,15.3696532 44.7064012,17.0736736 47.2870365,20.1839492 C46.3875505,22.5643694 45.4578086,24.2286794 44.4978108,25.1768792 C43.5378129,26.125079 40.8237421,27.5694963 36.3555983,29.510131 C37.0300904,30.3615088 37.4379282,30.8946023 37.5791117,31.1094114 C37.7202951,31.3242204 37.8598663,31.9403648 37.9978252,32.9578445 C37.2628827,33.4405749 36.7154738,33.765349 36.3555983,33.9321669 C35.9957227,34.0989848 35.356226,34.2357843 34.4371079,34.3425655 C35.908286,36.2910182 36.5958059,37.9282463 36.4996675,39.2542499 C36.4035291,40.5802536 35.9467629,42.0910627 35.1293689,43.7866774 C32.9949934,43.9604154 31.4203507,43.7752919 30.4054409,43.2313068 C29.3905311,42.6873217 27.9489251,41.2557554 26.080623,38.9366079 C25.9152518,39.2941219 25.7638497,39.546405 25.6264167,39.6934571 C25.4889836,39.8405093 25.2350898,40.0218895 24.864735,40.2375977 C24.5057304,40.1525887 24.2497762,40.0664043 24.0968725,39.9790446 C23.9439687,39.891685 23.7646401,39.7291759 23.5588866,39.4915174 C22.3545667,42.5124505 21.2842018,44.5532834 20.3477919,45.614016 C19.4113821,46.6747487 18.0248944,47.4170537 16.1883289,47.8409311 C14.0434988,45.6824042 12.7359869,43.9151235 12.2657931,42.539089 C11.7955994,41.1630545 11.7955994,39.1037662 12.2657931,36.3612241 C11.8739101,36.1843511 11.5698513,36.0253467 11.3536167,35.8842109 C11.137382,35.7430751 10.8532007,35.5536354 10.5010726,35.3158917 C10.2616917,34.9033291 10.0845703,34.578887 9.96970822,34.3425655 C9.85484618,34.106244 9.70916368,33.7132418 9.53266074,33.163559 Z" id="Path-3" stroke="#8E8E8E" fill="#8E8E8E"></path>
                <ellipse id="Oval" stroke="#FFFFFF" fill="#8D8D8D" transform="translate(16.273694, 11.430636) rotate(67.000000) translate(-16.273694, -11.430636) " cx="16.2736938" cy="11.4306358" rx="6" ry="3"></ellipse>
                <ellipse id="Oval" stroke="#FFFFFF" fill="#8D8D8D" transform="translate(29.882963, 14.510131) rotate(148.000000) translate(-29.882963, -14.510131) " cx="29.8829627" cy="14.510131" rx="6" ry="3"></ellipse>
                <ellipse id="Oval" stroke="#FFFFFF" fill="#8D8D8D" transform="translate(32.325853, 30.309464) rotate(207.000000) translate(-32.325853, -30.309464) " cx="32.3258526" cy="30.3094644" rx="6" ry="3"></ellipse>
                <ellipse id="Oval" stroke="#FFFFFF" fill="#8D8D8D" transform="translate(22.069939, 16.180875) rotate(91.000000) translate(-22.069939, -16.180875) " cx="22.0699385" cy="16.1808746" rx="5" ry="3.5"></ellipse>
                <ellipse id="Oval" stroke="#FFFFFF" fill="#8D8D8D" transform="translate(23.809765, 34.838443) rotate(76.000000) translate(-23.809765, -34.838443) " cx="23.8097654" cy="34.8384431" rx="5" ry="2.5"></ellipse>
                <ellipse id="Oval" stroke="#FFFFFF" fill="#8D8D8D" transform="translate(8.707560, 22.327947) rotate(5.000000) translate(-8.707560, -22.327947) " cx="8.70755998" cy="22.3279475" rx="5.5" ry="3"></ellipse>
                <ellipse id="Oval" stroke="#FFFFFF" fill="#8D8D8D" transform="translate(14.593468, 31.554821) rotate(-41.000000) translate(-14.593468, -31.554821) " cx="14.5934678" cy="31.5548207" rx="5.5" ry="3"></ellipse>
                <ellipse id="Oval" stroke="#FFFFFF" fill="#8D8D8D" transform="translate(15.410280, 19.206620) rotate(37.000000) translate(-15.410280, -19.206620) " cx="15.4102799" cy="19.20662" rx="5.5" ry="3"></ellipse>
                <ellipse id="Oval" stroke="#FFFFFF" fill="#8D8D8D" transform="translate(14.978505, 26.104375) rotate(-8.000000) translate(-14.978505, -26.104375) " cx="14.9785048" cy="26.104375" rx="5.5" ry="3"></ellipse>
                <ellipse id="Oval" stroke="#FFFFFF" fill="#8D8D8D" transform="translate(19.167290, 30.942651) rotate(-68.000000) translate(-19.167290, -30.942651) " cx="19.1672897" cy="30.9426512" rx="5.5" ry="3"></ellipse>
                <ellipse id="Oval" stroke="#FFFFFF" fill="#8D8D8D" transform="translate(30.540854, 25.426673) rotate(10.000000) translate(-30.540854, -25.426673) " cx="30.5408542" cy="25.4266729" rx="5.5" ry="3"></ellipse>
                <ellipse id="Oval" stroke="#FFFFFF" fill="#8D8D8D" transform="translate(26.382963, 29.510131) rotate(-126.000000) translate(-26.382963, -29.510131) " cx="26.3829627" cy="29.510131" rx="5.5" ry="3"></ellipse>
                <ellipse id="Oval" stroke="#FFFFFF" fill="#8D8D8D" transform="translate(28.572279, 20.307933) rotate(-23.000000) translate(-28.572279, -20.307933) " cx="28.5722792" cy="20.307933" rx="5.5" ry="3"></ellipse>
                <circle id="Oval" stroke="#FFFFFF" fill="#8D8D8D" cx="22.3829627" cy="24.010131" r="3.5"></circle>
            </g>
        </g>
    </g>
</svg>