<svg xmlns="http://www.w3.org/2000/svg" fill-rule="evenodd" stroke-linecap="round" stroke-linejoin="round" stroke-miterlimit="1.5" clip-rule="evenodd" viewBox="0 0 110 110" width="110" height="110"><path fill="#adadad" stroke="#fff" stroke-width=".9" d="M62.8 47.27s1.64-17.371 4.57-23.415c2.66-5.486 13.01-12.85 13.01-12.85s.39 12.929-2.33 18.532C75.12 35.581 62.8 47.27 62.8 47.27z"/><path fill="#cbcbcb" stroke="#fff" stroke-width=".9" d="M80.83 32.2c5.9-3.27 15.23-.794 15.23-.794s-3.11 9.158-9.36 11.948c-7.12 3.175-23.87 3.855-23.87 3.855.45-.352 12.31-11.848 18-15.009z"/><path fill="#b0b0b0" stroke="#fff" stroke-width=".9" d="M48.65 45.895s-3.94-16.211-3.09-24.037C47.21 6.6 54.87.45 54.87.45s7.65 6.15 9.3 21.408c.85 7.826-3.08 24.039-3.08 24.039a10.868 10.868 0 0 0-6.22-1.947c-2.31 0-4.46.719-6.22 1.945zm0 17.95s-3.94 16.211-3.09 24.037c1.65 15.258 9.31 21.408 9.31 21.408s7.65-6.15 9.3-21.408c.85-7.826-3.08-24.039-3.08-24.039a10.868 10.868 0 0 1-6.22 1.947c-2.31 0-4.46-.719-6.22-1.945zM45.9 48.653s-16.211-3.94-24.037-3.09C6.605 47.213.455 54.873.455 54.873s6.15 7.65 21.408 9.3c7.826.85 24.039-3.08 24.039-3.08a10.868 10.868 0 0 1-1.947-6.22c0-2.31.719-4.46 1.945-6.22zm17.945 0s16.211-3.94 24.037-3.09c15.258 1.65 21.408 9.31 21.408 9.31s-6.15 7.65-21.408 9.3c-7.826.85-24.039-3.08-24.039-3.08a10.868 10.868 0 0 0 1.947-6.22c0-2.31-.719-4.46-1.945-6.22z"/><path fill="#cbcbcb" stroke="#fff" stroke-width=".9" d="M62.8 62.47s1.64 17.371 4.57 23.415c2.66 5.486 13.01 12.85 13.01 12.85s.39-12.929-2.33-18.532C75.12 74.159 62.8 62.47 62.8 62.47z"/><path fill="#adadad" stroke="#fff" stroke-width=".9" d="M80.83 77.54c5.9 3.27 15.23.794 15.23.794s-3.11-9.158-9.36-11.948c-7.12-3.175-23.87-3.855-23.87-3.855.45.352 12.31 11.848 18 15.009z"/><path fill="#cbcbcb" stroke="#fff" stroke-width=".9" d="M46.93 47.27s-1.64-17.371-4.57-23.415c-2.66-5.486-13.01-12.85-13.01-12.85s-.39 12.929 2.33 18.532c2.93 6.044 15.25 17.733 15.25 17.733z"/><path fill="#adadad" stroke="#fff" stroke-width=".9" d="M28.9 32.2c-5.9-3.27-15.23-.794-15.23-.794s3.11 9.158 9.36 11.948c7.12 3.175 23.87 3.855 23.87 3.855-.45-.352-12.31-11.848-18-15.009zm18.03 30.27s-1.64 17.371-4.57 23.415c-2.66 5.486-13.01 12.85-13.01 12.85s-.39-12.929 2.33-18.532c2.93-6.044 15.25-17.733 15.25-17.733z"/><path fill="#cbcbcb" stroke="#fff" stroke-width=".9" d="M28.9 77.54c-5.9 3.27-15.23.794-15.23.794s3.11-9.158 9.36-11.948c7.12-3.175 23.87-3.855 23.87-3.855-.45.352-12.31 11.848-18 15.009z"/><circle cx="1804.72" cy="962.86" r="7.6" fill="#8e8e8e" stroke="#fff" stroke-width=".63" transform="translate(-2538.4 -1328.697) scale(1.43694)"/></svg>