<?xml version="1.0" encoding="UTF-8"?>
<svg width="67px" height="111px" viewBox="0 0 67 111" version="1.1" xmlns="http://www.w3.org/2000/svg" xmlns:xlink="http://www.w3.org/1999/xlink">
    <title>motif_cocotree</title>
    <defs>
        <circle id="path-1" cx="34" cy="38" r="4"></circle>
        <mask id="mask-2" maskContentUnits="userSpaceOnUse" maskUnits="objectBoundingBox" x="0" y="0" width="8" height="8" fill="white">
            <use xlink:href="#path-1"></use>
        </mask>
        <circle id="path-3" cx="34" cy="32" r="4"></circle>
        <mask id="mask-4" maskContentUnits="userSpaceOnUse" maskUnits="objectBoundingBox" x="0" y="0" width="8" height="8" fill="white">
            <use xlink:href="#path-3"></use>
        </mask>
        <circle id="path-5" cx="40" cy="35" r="4"></circle>
        <mask id="mask-6" maskContentUnits="userSpaceOnUse" maskUnits="objectBoundingBox" x="0" y="0" width="8" height="8" fill="white">
            <use xlink:href="#path-5"></use>
        </mask>
    </defs>
    <g id="Page-1" stroke="none" stroke-width="1" fill="none" fill-rule="evenodd">
        <g id="Artboard-1" transform="translate(-457.000000, -407.000000)" stroke="#8E8E8E">
            <g id="motif_cocotree" transform="translate(458.000000, 408.000000)">
                <path d="M25.9416215,107.242516 L39.8584852,109.718499 C45.6083128,87.878745 48.3011379,72.9191787 47.9369607,64.8398006 C47.5727834,56.7604224 44.7797997,48.1895964 39.5580096,39.1273227 L43.8855582,41.7572996 L46.0422299,37.68929 L46.0422299,43.1666471 L47.9369607,38.2828005 L48.6650725,43.9636581 L49.6995887,39.1273227 L50.8651123,44.4084129 L51.3179878,40.8674229 L52.4979022,44.4084129 L52.4979022,41.7572996 L53.4522859,45.6943278 L53.9223472,41.2663817 L56.1916215,46.0703886 L56.1916215,42.1340513 L58.7346614,47.4497955 L58.3600332,42.6228998 L60.4693592,47.4497955 L59.9803836,43.1666471 L61.9950233,47.4497955 L61.9950233,44.4084129 L63.9040132,46.9810939 C64.9418053,44.2545027 65.3724784,42.2166124 65.1960326,40.8674229 C65.0195868,39.5182334 64.0937228,37.7696569 62.4184408,35.6216933 C58.4478156,33.2136095 55.3203713,31.9001308 53.036108,31.6812572 C50.7518446,31.4623836 45.5536825,31.4623836 37.4416215,31.6812572 L47.9369607,31.2684808 L46.0422299,27.4426464 L47.9369607,29.136581 L47.3526237,26.4981948 L50.8651123,28.1649494 L48.6650725,24.2631221 L52.4979022,26.0868948 L50.1759793,21.6972645 L52.4979022,24.2631221 L51.3179878,20.6676182 L55.2366559,24.6577896 L52.4979022,19.200945 L57.021026,22.8741561 L55.6437865,19.200945 L58.3600332,21.6972645 L57.021026,17.3258409 L59.9803836,19.200945 L58.7346614,15.9149836 L60.8871612,17.3258409 C60.146303,14.0473934 59.0407757,11.7727477 57.5705793,10.5019037 C56.1003829,9.23105974 54.4094905,8.64725373 52.4979022,8.75048569 C49.4284335,10.9049846 46.7378811,13.6296066 44.4262451,16.9243518 C42.1146091,20.2190971 39.7864013,25.1380655 37.4416215,31.6812572 C35.8022118,29.1387728 34.5250811,27.7259025 33.6102295,27.4426464 C33.3269069,27.3549241 34.8195737,28.1469275 38.08823,29.8186567 L41.4247076,21.6972645 L36.8933163,18.7249073 L41.4247076,20.6676182 L38.08823,17.7725856 L42.0601903,18.7249073 L38.08823,16.3928276 L42.0601903,17.7725856 L38.08823,15.1448065 L42.8392689,17.3258409 L38.4466996,14.2174916 L43.4121057,16.9243518 L39.1596564,13.4085079 L43.4121057,15.9149836 L39.8584852,12.39122 L44.4262451,15.4848478 L41.0269186,11.8129694 L45.0042928,13.4085079 L40.3434847,8.75048569 L45.6178623,10.8343518 L40.3434847,6.26609473 L47.3526237,9.411283 L43.8855582,5.50274207 L48.6650725,7.85699283 L45.6178623,4.48004027 L48.6650725,5.50274207 C46.7625506,3.23721675 45.3496081,1.82171016 44.4262451,1.25622229 C43.5028821,0.69073442 41.9802954,0.271993657 39.8584852,-7.10542736e-15 C35.6075522,3.55065138 32.3920083,7.88291726 30.2118536,12.9967976 C28.0316989,18.110678 27.1371248,22.9259609 27.5281315,27.4426464 L31.9227113,34.0045929 C27.9353181,28.7261275 22.5743372,26.0868948 15.8397685,26.0868948 C9.10519983,26.0868948 3.82527699,28.7261275 1.42108547e-14,34.0045929 C0.170531659,37.499641 0.562047446,39.9202373 1.17454736,41.2663817 C1.78704727,42.6125261 2.89178014,44.2138617 4.48874597,46.0703886 L4.11275771,36.0680705 L5.52716573,43.1666471 L5.52716573,34.8835981 L6.93755338,43.1666471 L6.93755338,39.1273227 L9.02855108,41.7572996 L9.02855108,37.68929 L11.0689723,41.7572996 L11.4303058,35.6216933 L13.3584852,40.223398 L13.8211493,37.3123992 L15.1338503,39.6356002 L15.8397685,35.2685273 L17.749763,39.6356002 L18.4982095,35.2685273 L20.0878065,39.1273227 L21.5506348,35.2685273 L22.6343736,39.1273227 L23.6995043,35.6216933 L25.2692651,39.1273227 L30.5816288,35.6216933 C29.8324196,35.9728867 29.125905,36.3848659 28.462085,36.8576309 C27.1881026,37.7649466 25.3617286,38.9965044 23.3305066,41.2663817 C19.7117048,45.3103689 17.3631176,51.6821183 16.2847449,60.38163 C16.6893101,62.6509203 17.4271317,64.5681045 18.4982095,66.1331829 C19.5692873,67.6982612 21.4756844,69.0966103 24.217401,70.32823 C22.9143794,68.7755696 22.0254573,67.5155064 21.5506348,66.5480402 C21.0758124,65.5805741 20.5882029,64.0359098 20.0878065,61.9140473 L25.2692651,67.0575483 L22.0999288,59.6719413 L26.9416215,63.3778489 L23.6995043,56.9309981 L28.462085,59.6719413 L24.8310586,52.7490027 L30.2118536,56.2878033 L26.9416215,50.2700003 L31.6004016,52.7490027 L28.9504244,46.5319647 L33.6102295,50.2700003 L31.9227113,42.6228998 C32.9593194,42.2551569 33.634475,41.9666235 33.9481778,41.7572996 C34.2618807,41.5479756 34.4636725,41.2513501 34.5535532,40.8674229 C38.1204593,48.3588871 39.4181748,56.3496797 38.4466996,64.8398006 C37.4752245,73.3299214 33.3068651,87.46416 25.9416215,107.242516 Z" id="Path-31" stroke-width="0.3" fill="#8E8E8E"></path>
                <use id="Oval" mask="url(#mask-2)" stroke-width="0.6" fill="#FFFFFF" stroke-dasharray="800000000" xlink:href="#path-1"></use>
                <use id="Oval" mask="url(#mask-4)" stroke-width="0.6" fill="#FFFFFF" stroke-dasharray="800000000" xlink:href="#path-3"></use>
                <use id="Oval" mask="url(#mask-6)" stroke-width="0.6" fill="#FFFFFF" stroke-dasharray="800000000" xlink:href="#path-5"></use>
            </g>
        </g>
    </g>
</svg>