<?xml version="1.0" encoding="UTF-8"?>
<svg width="118px" height="69px" viewBox="0 0 118 69" version="1.1" xmlns="http://www.w3.org/2000/svg" xmlns:xlink="http://www.w3.org/1999/xlink">
    <title>motif_shell</title>
    <g id="Page-1" stroke="none" stroke-width="1" fill="none" fill-rule="evenodd">
        <g id="Artboard-1" transform="translate(-29.000000, -425.000000)">
            <g id="motif_shell" transform="translate(30.000000, 425.509586)">
                <path d="M0,41.6007791 C11.4638139,29.5905886 20.6203584,21.1540901 27.4696335,16.2912837 C32.5306935,12.6980633 38.7406571,7.64357598 47.8060473,3.61275787 C49.9414192,2.66329011 53.6788495,1.62592947 59.0183381,0.50067595 C69.2116665,0.248503498 79.4640456,4.64397764 89.7754754,13.6870984 C100.086905,22.7302191 108.828413,34.0291226 116,47.5838087 C110.870671,52.7655557 106.929561,55.9226561 104.176669,57.0551097 C101.423778,58.1875634 96.2590713,58.626898 88.6825504,58.3731135 C84.0639047,62.5098939 80.4794338,64.819472 77.9291378,65.3018479 C75.3788417,65.7842237 71.5701269,64.8730299 66.5029933,62.5682665 C62.2106692,65.5104745 58.7422834,66.9815785 56.0978357,66.9815785 C53.4533881,66.9815785 49.457681,65.5104745 44.1107146,62.5682665 C37.4654312,63.7749081 32.8090981,63.7749081 30.141715,62.5682665 C27.474332,61.3616249 24.3422475,57.8383855 20.7454614,51.9985483 C14.9888601,51.9733102 10.6069539,51.3625827 7.59974265,50.1663657 C4.59253142,48.9701487 2.05928387,46.1149532 0,41.6007791 Z" id="Path-21" stroke="#979797" stroke-width="0.3" fill="#8E8E8E" stroke-linejoin="round"></path>
                <path d="M92,20.4904142 C92.3772603,22.3670179 92.8431813,23.6854471 93.3977629,24.4457015 C93.9523444,25.205956 94.6530901,25.7863889 95.5,26.1870001 C96.3489309,26.5826748 96.8762568,26.8445926 97.0819777,26.9727533 C98.3941101,27.7901903 98.6900466,28.3631824 98.8284551,28.8209261 C99.1267807,29.8075474 99.0360034,30.7098551 98.556123,31.5278493 C98.0439444,32.1695592 97.3527651,32.4904142 96.482585,32.4904142 C95.6124049,32.4904142 94.7980684,31.9613714 94.0395755,30.9032858" id="Path-20" stroke="#FFFFFF" stroke-width="0.3"></path>
                <path d="M75,23.4904142 C75.3772603,25.3670179 75.8431813,26.6854471 76.3977629,27.4457015 C76.9523444,28.205956 77.6530901,28.7863889 78.5,29.1870001 C79.3489309,29.5826748 79.8762568,29.8445926 80.0819777,29.9727533 C81.3941101,30.7901903 81.6900466,31.3631824 81.8284551,31.8209261 C82.1267807,32.8075474 82.0360034,33.7098551 81.556123,34.5278493 C81.0439444,35.1695592 80.3527651,35.4904142 79.482585,35.4904142 C78.6124049,35.4904142 77.7980684,34.9613714 77.0395755,33.9032858" id="Path-20" stroke="#FFFFFF" stroke-width="0.3" transform="translate(78.500000, 29.490414) rotate(19.000000) translate(-78.500000, -29.490414) "></path>
                <path d="M55,13.4904142 C55.2074432,18.2494518 55.7865204,21.1991614 56.7372317,22.3395431 C57.687943,23.4799248 58.7949827,24.4770621 60.0583509,25.3309549 C62.27641,26.465356 63.5617717,27.1286771 63.9144361,27.3209182 C66.163806,28.5470737 66.4370018,30.0375285 66.6742734,30.7241441 C67.1856889,32.204076 67.078002,33.6271976 66.3512127,34.9935089 C64.7860717,36.977879 63.2576326,37.9700641 61.7658953,37.9700641 C60.837247,37.9700641 59.553532,37.9780236 58.5494175,37.3208375 C58.1435188,37.0551796 57.5640233,36.5404219 56.8109311,35.7765645 C55.8701185,34.4783906 55.8558769,33.0155421 56.7682063,31.3880192 C57.6805357,29.7604963 59.02315,28.946162 60.796049,28.9450164 C61.7137949,29.1427119 62.3823434,29.4176956 62.8016943,29.7699673 C63.2210453,30.122239 63.6628897,30.7326374 64.1272274,31.6011624 C64.7599149,32.6807254 64.4487637,33.625966 63.1937738,34.4368842 C61.9387839,35.2478024 61.0372918,34.847619 60.4892977,33.236334" id="Path-20" stroke="#FFFFFF" stroke-width="0.3" transform="translate(60.995559, 25.730239) rotate(19.000000) translate(-60.995559, -25.730239) "></path>
                <path d="M35,24.4904142 C35.3772603,26.3670179 35.8431813,27.6854471 36.3977629,28.4457015 C36.9523444,29.205956 37.6530901,29.7863889 38.5,30.1870001 C39.3489309,30.5826748 39.8762568,30.8445926 40.0819777,30.9727533 C41.3941101,31.7901903 41.6900466,32.3631824 41.8284551,32.8209261 C42.1267807,33.8075474 42.0360034,34.7098551 41.556123,35.5278493 C41.0439444,36.1695592 40.3527651,36.4904142 39.482585,36.4904142 C38.6124049,36.4904142 37.7980684,35.9613714 37.0395755,34.9032858" id="Path-20" stroke="#FFFFFF" stroke-width="0.3" transform="translate(38.500000, 30.490414) rotate(59.000000) translate(-38.500000, -30.490414) "></path>
                <path d="M23,15.4904142 C23.3772603,17.3670179 23.8431813,18.6854471 24.3977629,19.4457015 C24.9523444,20.205956 25.6530901,20.7863889 26.5,21.1870001 C27.3489309,21.5826748 27.8762568,21.8445926 28.0819777,21.9727533 C29.3941101,22.7901903 29.6900466,23.3631824 29.8284551,23.8209261 C30.1267807,24.8075474 30.0360034,25.7098551 29.556123,26.5278493 C29.0439444,27.1695592 28.3527651,27.4904142 27.482585,27.4904142 C26.6124049,27.4904142 25.7980684,26.9613714 25.0395755,25.9032858" id="Path-20" stroke="#FFFFFF" stroke-width="0.3" transform="translate(26.500000, 21.490414) rotate(77.000000) translate(-26.500000, -21.490414) "></path>
                <path d="M12.0957311,29.0560007 C11.6451695,29.3928699 12.5083323,30.1418744 14.6852196,31.3030141 C16.8621069,32.4641539 19.7982271,32.325877 23.4935801,30.8881834 C25.49786,36.4661839 28.4409395,39.9894233 32.3228184,41.4579016 C36.2046974,42.9263799 40.5789703,42.4780968 45.4456371,40.1130524 C48.7489756,43.9804378 52.9337632,45.9141305 58,45.9141305 C63.0662368,45.9141305 67.2673117,43.9804378 70.6032248,40.1130524 C74.9292317,42.9084214 78.8924769,43.8439423 82.4929603,42.9196153 C86.0934437,41.9952882 88.8144781,39.7897545 90.6560635,36.3030141 C95.2566246,37.278413 99.0013188,37.1589899 101.890146,35.9447448 C104.778973,34.7304997 106.167624,33.2758274 106.056097,31.5807282" id="Path-22" stroke="#FFFFFF"></path>
            </g>
        </g>
    </g>
</svg>