<?xml version="1.0" encoding="UTF-8"?>
<svg width="81px" height="114px" viewBox="0 0 81 114" version="1.1" xmlns="http://www.w3.org/2000/svg" xmlns:xlink="http://www.w3.org/1999/xlink">
    <title>motif_leaves</title>
    <g id="Page-1" stroke="none" stroke-width="1" fill="none" fill-rule="evenodd">
        <g id="Artboard-1" transform="translate(-456.000000, -143.000000)" stroke="#8E8E8E">
            <g id="motif_leaves" transform="translate(457.771906, 144.000000)">
                <path d="M63.0730607,18.4301514 C60.0366535,16.7305586 58.0590964,15.2400981 57.1403892,13.95877 C56.2216819,12.6774419 55.9968481,11.0962105 56.4658876,9.2150757 C57.4522855,7.44194014 57.9737256,6.05864534 58.0302078,5.06519129 C58.08669,4.07173725 57.7900838,2.38334015 57.1403892,-1.42108547e-14 C58.9172633,0.717467845 60.3502605,1.55740887 61.4393805,2.51982307 C62.5285006,3.48223728 63.3284148,4.33069335 63.8391229,5.06519129 C65.7134856,8.00617693 66.650667,10.3119318 66.650667,11.9824559 C66.650667,13.65298 65.4581315,15.8022119 63.0730607,18.4301514 Z" id="Path-7" fill="#8E8E8E"></path>
                <path d="M54.1387939,30 C51.5168248,28.524511 49.8091836,27.2305788 49.0158704,26.1182032 C48.2225571,25.0058277 48.0284107,23.6330933 48.4334312,22 C49.2851961,20.4606654 49.735465,19.2597683 49.784238,18.3973085 C49.833011,17.5348487 49.5768884,16.0690792 49.0158704,14 C50.5502197,14.6228644 51.7876276,15.352053 52.7280941,16.1875658 C53.6685606,17.0230786 54.3592948,17.7596595 54.8002966,18.3973085 C56.4188283,20.9505034 57.2280941,22.9522275 57.2280941,24.4024807 C57.2280941,25.8527339 56.1983274,27.7185737 54.1387939,30 Z" id="Path-7" fill="#8E8E8E" transform="translate(52.728094, 22.000000) rotate(-19.000000) translate(-52.728094, -22.000000) "></path>
                <path d="M49.1387939,48 C46.5168248,46.524511 44.8091836,45.2305788 44.0158704,44.1182032 C43.2225571,43.0058277 43.0284107,41.6330933 43.4334312,40 C44.2851961,38.4606654 44.735465,37.2597683 44.784238,36.3973085 C44.833011,35.5348487 44.5768884,34.0690792 44.0158704,32 C45.5502197,32.6228644 46.7876276,33.352053 47.7280941,34.1875658 C48.6685606,35.0230786 49.3592948,35.7596595 49.8002966,36.3973085 C51.4188283,38.9505034 52.2280941,40.9522275 52.2280941,42.4024807 C52.2280941,43.8527339 51.1983274,45.7185737 49.1387939,48 Z" id="Path-7" fill="#8E8E8E" transform="translate(47.728094, 40.000000) rotate(-11.000000) translate(-47.728094, -40.000000) "></path>
                <path d="M41.3229713,67.1859379 C38.7010022,65.710449 36.993361,64.4165167 36.2000478,63.3041412 C35.4067346,62.1917656 35.2125882,60.8190312 35.6176087,59.1859379 C36.4693736,57.6466034 36.9196425,56.4457062 36.9684154,55.5832464 C37.0171884,54.7207866 36.7610659,53.2550171 36.2000478,51.1859379 C37.7343971,51.8088024 38.9718051,52.537991 39.9122716,53.3735038 C40.8527381,54.2090165 41.5434722,54.9455974 41.9844741,55.5832464 C43.6030057,58.1364414 44.4122716,60.1381655 44.4122716,61.5884187 C44.4122716,63.0386719 43.3825048,64.9045116 41.3229713,67.1859379 Z" id="Path-7" fill="#8E8E8E" transform="translate(39.912272, 59.185938) rotate(1.000000) translate(-39.912272, -59.185938) "></path>
                <path d="M30.1387939,81 C27.5168248,79.524511 25.8091836,78.2305788 25.0158704,77.1182032 C24.2225571,76.0058277 24.0284107,74.6330933 24.4334312,73 C25.2851961,71.4606654 25.735465,70.2597683 25.784238,69.3973085 C25.833011,68.5348487 25.5768884,67.0690792 25.0158704,65 C26.5502197,65.6228644 27.7876276,66.352053 28.7280941,67.1875658 C29.6685606,68.0230786 30.3592948,68.7596595 30.8002966,69.3973085 C32.4188283,71.9505034 33.2280941,73.9522275 33.2280941,75.4024807 C33.2280941,76.8527339 32.1983274,78.7185737 30.1387939,81 Z" id="Path-7" fill="#8E8E8E" transform="translate(28.728094, 73.000000) rotate(13.000000) translate(-28.728094, -73.000000) "></path>
                <path d="M15.1387939,87 C12.5168248,85.3400749 10.8091836,83.8844011 10.0158704,82.6329786 C9.22255713,81.3815561 9.02841075,79.8372299 9.43343123,78 C10.2851961,76.2682486 10.735465,74.9172393 10.784238,73.946972 C10.833011,72.9767047 10.5768884,71.3277141 10.0158704,69 C11.5502197,69.7007225 12.7876276,70.5210596 13.7280941,71.4610115 C14.6685606,72.4009634 15.3592948,73.2296169 15.8002966,73.946972 C17.4188283,76.8193164 18.2280941,79.071256 18.2280941,80.7027908 C18.2280941,82.3343257 17.1983274,84.4333954 15.1387939,87 Z" id="Path-7" fill="#8E8E8E" transform="translate(13.728094, 78.000000) rotate(13.000000) translate(-13.728094, -78.000000) "></path>
                <path d="M20.4820495,111 C18.1514103,109.616729 16.633507,108.403668 15.9283397,107.360816 C15.2231723,106.317963 15.0505978,105.031025 15.410616,103.5 C16.1677403,102.056874 16.5679794,100.931033 16.6113331,100.122477 C16.6546869,99.3139206 16.4270224,97.9397617 15.9283397,96 C17.2922057,96.5839354 18.3921239,97.2675497 19.2280941,98.050843 C20.0640643,98.8341362 20.6780503,99.5246808 21.0700519,100.122477 C22.5087467,102.516097 23.2280941,104.392713 23.2280941,105.752326 C23.2280941,107.111938 22.3127459,108.861163 20.4820495,111 Z" id="Path-7" fill="#8E8E8E" transform="translate(19.228094, 103.500000) scale(1, -1) rotate(48.000000) translate(-19.228094, -103.500000) "></path>
                <path d="M36.4820495,103 C34.1514103,101.616729 32.633507,100.403668 31.9283397,99.3608155 C31.2231723,98.3179634 31.0505978,97.0310249 31.410616,95.5 C32.1677403,94.0568739 32.5679794,92.9310327 32.6113331,92.1224767 C32.6546869,91.3139206 32.4270224,89.9397617 31.9283397,88 C33.2922057,88.5839354 34.3921239,89.2675497 35.2280941,90.050843 C36.0640643,90.8341362 36.6780503,91.5246808 37.0700519,92.1224767 C38.5087467,94.516097 39.2280941,96.3927133 39.2280941,97.7523257 C39.2280941,99.111938 38.3127459,100.861163 36.4820495,103 Z" id="Path-7" fill="#8E8E8E" transform="translate(35.228094, 95.500000) scale(1, -1) rotate(48.000000) translate(-35.228094, -95.500000) "></path>
                <path d="M53.5657331,81.3360237 C50.943764,79.9527528 49.2361229,78.7396913 48.4428096,77.6968392 C47.6494964,76.6539871 47.45535,75.3670486 47.8603705,73.8360237 C48.7121354,72.3928975 49.1624043,71.2670564 49.2111773,70.4585004 C49.2599502,69.6499443 49.0038277,68.2757854 48.4428096,66.3360237 C49.977159,66.9199591 51.2145669,67.6035734 52.1550334,68.3868666 C53.0954999,69.1701599 53.7862341,69.8607045 54.2272359,70.4585004 C55.8457675,72.8521207 56.6550334,74.728737 56.6550334,76.0883494 C56.6550334,77.4479617 55.6252666,79.1971865 53.5657331,81.3360237 Z" id="Path-7" fill="#8E8E8E" transform="translate(52.155033, 73.836024) scale(1, -1) rotate(108.000000) translate(-52.155033, -73.836024) "></path>
                <path d="M65.3055275,59.6709427 C62.6835583,58.3798899 60.9759172,57.2476991 60.1826039,56.2743705 C59.3892907,55.3010419 59.1951443,54.0998993 59.6001648,52.6709427 C60.4519297,51.324025 60.9021986,50.2732399 60.9509716,49.5185876 C60.9997445,48.7639353 60.743622,47.481387 60.1826039,45.6709427 C61.7169533,46.2159491 62.9543612,46.8539891 63.8948277,47.5850628 C64.8352942,48.3161365 65.5260284,48.9606448 65.9670302,49.5185876 C67.5855619,51.7526332 68.3948277,53.5041418 68.3948277,54.7731134 C68.3948277,56.0420849 67.365061,57.6746947 65.3055275,59.6709427 Z" id="Path-7" fill="#8E8E8E" transform="translate(63.894828, 52.670943) scale(1, -1) rotate(98.000000) translate(-63.894828, -52.670943) "></path>
                <path d="M72.0305371,32.7468922 C69.6998979,31.6402754 68.1819946,30.6698262 67.4768273,29.8355446 C66.77166,29.0012629 66.5990854,27.9717121 66.9591036,26.7468922 C67.716228,25.5923912 68.116467,24.6917183 68.1598207,24.0448735 C68.2031745,23.3980286 67.97551,22.2987015 67.4768273,20.7468922 C68.8406934,21.2140405 69.9406115,21.7609319 70.7765817,22.3875665 C71.612552,23.0142011 72.2265379,23.5666368 72.6185395,24.0448735 C74.0572343,25.9597697 74.7765817,27.4610628 74.7765817,28.5487527 C74.7765817,29.6364426 73.8612335,31.0358224 72.0305371,32.7468922 Z" id="Path-7" fill="#8E8E8E" transform="translate(70.776582, 26.746892) scale(1, -1) rotate(131.000000) translate(-70.776582, -26.746892) "></path>
                <path d="M-1.42108547e-14,92.8216869 C2.88506748,93.9224446 5.15961505,94.4728234 6.8236427,94.4728234 C8.48767036,94.4728234 11.1974712,93.9224446 14.9530452,92.8216869 C18.4602796,91.6444269 20.990538,90.6755108 22.5438204,89.9149388 C24.0971028,89.1543668 26.1585274,87.8749438 28.7280941,86.0766698 C31.7024268,83.6973825 33.8841747,81.8162944 35.2733377,80.4334055 C36.6625007,79.0505165 38.208812,77.2203829 39.9122716,74.9430047 C42.4908552,71.5011135 44.3038044,68.941197 45.3511193,67.2632553 C46.3984342,65.5853136 47.6016288,63.3129551 48.9607031,60.4461799 C50.3660612,57.6859091 51.4308379,55.456747 52.1550334,53.7586936 C52.8792288,52.0606402 53.7927433,49.6512147 54.8955768,46.530417 C56.5799663,43.0125869 57.6546071,40.564121 58.1194993,39.1850193 C58.8244551,36.9281581 59.6774666,32.7821157 60.6785337,26.7468922 C61.1857649,23.1902834 61.4393805,20.4180365 61.4393805,18.4301514 C61.4393805,16.4422663 61.1857649,13.3705744 60.6785337,9.2150757" id="Path-8" stroke-linecap="round"></path>
                <path d="M6.22809412,94.4471935 C9.78276272,91.3651685 12.0660908,88.9116604 13.0780782,87.086669 C14.0900657,85.2616776 14.7310681,82.4255422 15.0010854,78.5782628" id="Path-9" stroke-linecap="round"></path>
                <path d="M18.8312882,91.4333389 C20.5265844,90.6433161 21.6325071,90.0737385 22.1490563,89.7246061 C24.9312584,87.8441333 26.4091019,86.288958 27.3462758,84.8615029 C28.2156787,83.537273 28.6353583,81.2724873 28.7280941,78 C28.751473,77.1749993 28.5264728,75.9243151 28.0530936,74.2479472" id="Path-9" stroke-linecap="round"></path>
                <path d="M36.9993187,78.5782628 C38.0158276,77.503198 38.8720608,76.3673566 39.5680182,75.1707386 C40.2639757,73.9741206 40.7388171,71.8779078 40.9925422,68.8821003 C40.996871,66.4664608 40.8700084,64.6454782 40.6119545,63.4191526 C40.3539005,62.1928271 39.8652115,60.7817555 39.1458874,59.1859379" id="Path-10" stroke-linecap="round"></path>
                <path d="M49.206104,60.0846276 C50.3513049,54.0206459 50.8290527,49.8537178 50.6393473,47.5838433 C50.4496419,45.3139687 49.4792242,42.5143608 47.7280941,39.1850193" id="Path-11" stroke-linecap="round"></path>
                <path d="M57.8239114,39.1850193 C57.7662818,38.0887912 57.3804721,34.7287413 56.6664822,29.1048697 C56.3742235,27.8308922 56.0251277,26.7137729 55.6191948,25.7535118 C55.2132619,24.7932506 54.463949,23.6413371 53.3712561,22.2977713" id="Path-12" stroke-linecap="round"></path>
                <path d="M58.1194993,39 C59.0882252,36.8708399 59.8808169,35.3974753 60.4972745,34.5799061 C61.1137321,33.762337 61.7611008,33.0268503 62.4393805,32.3734461 C63.3195785,31.5467381 64.3811477,30.6693878 65.6240881,29.7413953 C66.8670286,28.8134028 68.9895062,27.4819017 71.991521,25.7468922" id="Path-13" stroke-linecap="round"></path>
                <path d="M50.0573617,58.1463253 L51.7887109,55.3072708 L52.8651817,54.3583337 C53.41172,53.8868082 54.0037549,53.487695 54.6412865,53.1609941 C55.278818,52.8342932 55.9691889,52.541398 56.7123993,52.2823086 C57.6459976,51.9900692 58.7415186,51.8439496 59.9989623,51.8439496 C61.2564061,51.8439496 62.3792309,51.9900692 63.3674369,52.2823086" id="Path-14" stroke-linecap="round"></path>
                <path d="M37.4889559,78 C38.6445261,77.1786226 39.5173676,76.5947278 40.1074803,76.2483158 C40.697593,75.9019038 41.4638292,75.567668 42.4061889,75.2456083 C44.5417239,74.6051579 46.3156923,74.1352963 47.7280941,73.8360237 C49.140496,73.5367511 50.783424,73.2580765 52.6568784,73" id="Path-15" stroke-linecap="round"></path>
                <path d="M20.1372549,90.8766574 C20.6911929,90.4172082 21.7148795,89.9748724 23.2083148,89.54965 C24.70175,89.1244277 26.1596373,88.9118165 27.5819766,88.9118165 C28.0057639,88.8980512 28.5219495,88.9578289 29.1305334,89.0911495 C29.7391172,89.2244702 30.193462,89.3773037 30.4935678,89.54965 C32.04321,90.8454511 33.1374358,91.8877714 33.7762453,92.6766108 C34.4150548,93.4654502 35.1816863,94.7210258 36.0761399,96.4433375" id="Path-16" stroke-linecap="round"></path>
                <path d="M6.26318699,94.4728234 C7.3969357,94.5319261 8.22594847,94.630849 8.7502253,94.7695921 C9.27450213,94.9083351 10.0186661,95.1518044 10.9827173,95.5 L12.1635696,96.1442632 L14.4833347,97.671056 C15.1871671,98.09226 15.8414722,98.7346459 16.4462501,99.5982137 C17.051028,100.461781 17.7553535,101.759397 18.5592266,103.491059" id="Path-17" stroke-linecap="round"></path>
            </g>
        </g>
    </g>
</svg>