<svg xmlns="http://www.w3.org/2000/svg" fill-rule="evenodd" stroke-linecap="round" stroke-linejoin="round" stroke-miterlimit="1.5" clip-rule="evenodd" viewBox="0 0 171 260" width="171" height="260"><path fill="#8e8e8e" stroke="#fff" stroke-width=".9" d="M170.5 248.387s-7.79 9.304-20.85 10.25c-9.89.717-13.98-3.029-23.61-3.886-6.24-.555-15.49 3.355-15.49 3.355-3.25-11.161 1.22-18.387 12.08-22.353-5.05-10.084-5.59-18.536.03-24.756 0 0 5.27 6.525 10.28 8.41 11.4 4.29 18.07 1.494 29.03 9.585 7.38 5.451 8.53 19.395 8.53 19.395z"/><path fill="#a2a2a2" d="M119.26 217.046c-10.07-13.349-14.94-8.261-24.37-18.212-4.18-4.403-2.23-13.003-2.23-13.003-9.63 4.858-12.79 13.893-10.05 26.73-19.28-.762-23.89 14.619-18.71 23.37 0 0 3.49-8.826 11.3-6.887 7.58 1.88 9.51 9.007 18.18 13.658 4.31 2.313 13.22 2.475 18.42.705 2.15-3.292 5.81-5.821 10.83-7.654-3.56-7.119-4.88-13.426-3.37-18.707z"/><path fill="#adadad" stroke="#fff" stroke-width=".9" d="M67.06 217.121c-5.04-.067-10.66-1.256-13.72-3.912-5.73-4.957-5.83-14.372-13.39-15.421-9.25-1.284-5.64 10.044-5.64 10.044-13.21-12.629-.38-34.364 19.04-24.392-5.28-13.871-2.36-21.589 14.95-27.895 0 0-3.49 11.533 2.49 16.135 8.81 6.769 13.8 12.703 14.01 20.914-3.28 5.013-3.96 11.702-2.19 19.967-7.08-.279-12.18 1.616-15.55 4.56z"/><path fill="#b6b4b4" stroke="#fff" stroke-width=".9" d="M60.19 159.186c1.26-2.814.84-5.857.13-7.287-2.19-4.418-6.58-6.015-7.07-10.923-.45-4.502 5.6-11.694 5.6-11.694-15.48 1.923-24.79 7.666-22.63 19.828-13.82-8.306-25.01-8.176-32.31 7.461 0 0 7.84-.457 10.44 2.134 4.66 4.64 5.42 9.786 9.58 17.563 1.83 3.407 5.6 6.864 9.71 8.515 4.38-4.09 11.45-5.584 19.71-1.343-4.31-11.327-3.16-18.551 6.84-24.254z"/><path fill="#bebebe" stroke="#fff" stroke-width=".9" d="M18.96 143.689s-4.54-4.591-5.88-10.731c-1.19-5.482 1.13-8.632 1.54-15.206.39-6.4-8.9-14.701-14.17-12.489 5.59-13.809 20.9-15.65 29.34-2.998 6.99-11.359 17-12.556 28.56-5.401 0 0-8.8.461-9.27 7.96-.44 6.951 3.79 11.507 4.52 16.496.75 5.113-2.55 9.407-2.55 9.407-10.69 2.78-16.6 8.434-14.83 18.383-6.35-3.815-12.14-5.851-17.26-5.421z"/><path fill="#cbcbcb" stroke="#fff" stroke-width=".9" d="M45.61 92.411c2.8-5.797 2.87-6.307 1.42-13.966-1.65-8.718 12.85-4.923 12.85-4.923C59.05 65 49.8 59.14 36.51 61.577c-6.53-12.585-20.56-13.479-29.47-6.318 0 0 8.12 4.576 10.08 11.924 1.25 4.666-2.16 9.939-1.47 15.863.53 4.562 2.56 10.955 2.56 10.955 4.24.786 8.4 3.495 11.58 8.264 4.26-6.926 9.65-10.073 15.82-9.854z"/><path fill="#d2d2d2" stroke="#fff" stroke-width=".9" d="M27.91 52.737s-.94-8.22-.01-11.414c.88-3.055 3.2-5.044 5.56-7.75 3.56-4.084.23-11.155-4.6-12.934 6.67-6.2 21.17-.795 26.49 12.869C73.95 28.752 79.22 45.071 77.36 50c0 0-9.71-5.038-13.09-1.242-2.53 2.829 1.09 6.511-1.06 11.786-1.43 3.503-7.53 4.855-7.53 4.855-4.08-3.613-10.83-5.351-19.17-3.822-2.18-4.21-5.21-7.111-8.6-8.84z"/><path fill="#dedede" stroke="#fff" stroke-width=".9" d="M50.3 25.284a26.651 26.651 0 0 1 5.05 8.224c4.81-1.23 8.73-1.05 11.87-.021 0 0 9.09-1 15.14-4.955C92 22.237 95.75 11.585 95.75 11.585c-.47-.857-9.92-15.782-33.83-9.669-11.47 2.935-11.7 15.837-11.62 23.368z"/><path fill="none" stroke="#fff" stroke-width=".9" d="M170.35 248.319c-17.8-2.321-33.71-6.803-47.63-12.567-14.79-6.124-28.1-13.808-39.75-23.199-10.56-8.519-22.11-18.223-29.45-28.951-7.14-10.437-13.22-21.873-17.09-33.952-8.65-27.054-8.96-64.093.14-88.196 3.57-9.442 11.17-18.901 18.75-27.96C64.19 22.89 73.41 13.302 81.7 11.979m34.11 237.579c8.99-4.685 19.27-6.772 30.59-5.857m-21.11-22.837c3.53 9.98 14.85 17.522 24.87 23.709m-54.35-39.157c-.52 5.668.16 12.443 3.75 18.55m-26.93-2.552c8.94-.992 18.61-.54 26 2.218m-33.6-51.817c-1.22 8.415-2.28 16.49 1.05 26.099m-22.4-4.729c9.74-.124 16.68 2.316 22.96 5.355m-19.39-54.134c-3.79 4.087-5.03 9.448-4.22 21.397M22.14 155.19c8.71-.443 16.68 7.869 22.63 14.09m-.38-65.854c-5.46 6.507-10.15 14.212-13.07 22.901m-15.77-21.838c6.77 5.703 12.38 12.341 16.04 23.904m-8.66-65.161c4.55 3.22 8.2 11.651 8.39 19.384m12.42-9.768c-5.19 4.669-9.94 10.475-13.2 16.914m12.72-61.489c3.04 3.642 3.26 10.186 1.94 17.997m14.18-3.504c-8.07 3.603-15.43 9.253-21.3 15.142"/></svg>