<?xml version="1.0" encoding="UTF-8"?>
<svg width="34px" height="32px" viewBox="0 0 34 32" version="1.1" xmlns="http://www.w3.org/2000/svg" xmlns:xlink="http://www.w3.org/1999/xlink">
    <title>motif_spiral</title>
    <g id="Page-1" stroke="none" stroke-width="1" fill="none" fill-rule="evenodd" stroke-linecap="round" stroke-linejoin="round">
        <g id="Artboard-1" transform="translate(-208.000000, -312.000000)" stroke="#8E8E8E">
            <path d="M209,333.551185 C209.852304,328.010137 210.908745,324.081169 212.169323,321.764282 C213.003646,320.230834 214.238912,317.968605 216.249617,316.014088 C216.934464,315.348379 218.627962,314.431198 221.330111,313.262547 C225.732163,312.628685 229.390968,313.142564 232.306524,314.804183 C235.222081,316.465802 237.850994,319.495554 240.193262,323.893438 C240.684352,325.871438 240.929897,327.425068 240.929897,328.554329 C240.929897,329.284131 240.592559,331.462323 240.193262,333.551185 C240.047558,334.313416 239.67598,335.570694 239.078529,337.32302 C238.524901,338.779005 237.762307,339.97416 236.790744,340.908483 C235.819182,341.842807 234.324442,342.607664 232.306524,343.203056 C228.896813,343.283883 226.449621,343.006422 224.964949,342.370675 C223.480276,341.734928 221.818381,340.633575 219.979264,339.066616 C218.829485,337.709816 218.077007,336.601066 217.721831,335.740366 C217.366655,334.879667 217.516138,332.620384 218.17028,328.96252 C218.463463,327.978528 218.764153,327.248759 219.07235,326.773212 C219.380547,326.297666 219.953734,325.679045 220.791912,324.917352 C221.417847,324.439298 221.988601,324.097993 222.504171,323.893438 C223.019742,323.688883 223.840001,323.478297 224.964949,323.261681 C226.22454,323.122437 227.142096,323.122437 227.717619,323.261681 C228.293141,323.400925 229.074022,323.811851 230.060263,324.494459 C230.86395,325.221144 231.39211,325.812788 231.644742,326.269392 C231.897373,326.725996 232.310936,327.434924 232.88543,328.396177 C233.359541,329.699003 233.596596,330.804438 233.596596,331.712481 C233.596596,332.620524 233.166572,333.769093 232.306524,335.158189 C231.655386,335.827728 231.186836,336.240536 230.900876,336.396611 C230.117842,336.823986 229.410914,337.199996 229.031325,337.32302 C228.4438,337.513436 227.556232,337.346802 226.368621,336.823118 C225.298124,336.313716 224.591224,335.75874 224.24792,335.158189 C223.904616,334.557638 223.904616,333.409069 224.24792,331.712481 C224.971387,330.512808 225.412382,329.781538 225.570905,329.518669 C226.141405,329.13995 226.674239,329.13995 227.169407,329.518669 C227.664576,329.897389 227.847313,330.62866 227.717619,331.712481" id="motif_spiral"></path>
        </g>
    </g>
</svg>