<?xml version="1.0" encoding="UTF-8"?>
<svg width="70px" height="69px" viewBox="0 0 70 69" version="1.1" xmlns="http://www.w3.org/2000/svg" xmlns:xlink="http://www.w3.org/1999/xlink">
    <title>motif_horn</title>
    <g id="Page-1" stroke="none" stroke-width="1" fill="none" fill-rule="evenodd">
        <g id="Artboard-1" transform="translate(-463.000000, -544.000000)" stroke="#979797">
            <g id="motif_horn" transform="translate(464.759045, 545.834653)">
                <path d="M25.8536935,66.3596097 C28.3381056,64.2253154 30.0172109,62.454338 30.8910096,61.0466774 C31.7648082,59.6390168 32.6749311,57.1880622 33.6213782,53.6938134 C34.0861801,51.666333 34.4224498,49.9658477 34.6301873,48.5923573 C34.8379247,47.218867 35.060246,45.2769087 35.297151,42.7664822 C35.492118,39.4022908 35.492118,36.8627408 35.297151,35.1478322 C35.102184,33.4329236 34.3845458,31.0591685 33.1442364,28.0265669 C32.4500573,25.827781 31.6989817,24.0363234 30.8910096,22.6521941 C30.0830375,21.2680648 28.632662,19.4884643 26.5398832,17.3133926 C24.426347,15.4194678 22.8142727,14.1228849 21.7036605,13.4236439 C20.5930483,12.724403 18.8453388,12.1656792 16.460532,11.7474726 C13.2773317,11.4743359 10.9404202,11.6834551 9.4497975,12.3748303 C7.95917481,13.0662056 6.29599779,14.712393 4.46026645,17.3133926 C2.97265057,19.5997547 1.9845531,21.3793552 1.49597403,22.6521941 C1.00739497,23.9250329 0.624742134,25.7164905 0.34801553,28.0265669 C-0.116005177,31.2536835 -0.116005177,33.4934128 0.34801553,34.7457549 C0.812036237,35.9980971 2.18278654,37.704462 4.46026645,39.8648497 C6.24991089,41.1235986 7.68729232,41.8240894 8.77241074,41.9663221 C9.85752916,42.1085549 11.7691812,41.1182907 14.5073669,38.9955297 C15.9196152,37.6804891 16.7342642,36.6982595 16.9513141,36.0488409 C17.168364,35.3994223 17.168364,34.3068681 16.9513141,32.7711783 C16.4936277,31.8667965 16.1214319,31.206201 15.8347266,30.7893917 C15.5480212,30.3725824 14.8152457,29.7255256 13.6363998,28.8482213 C11.8342017,28.0119747 10.6686664,27.9009408 10.1397938,28.5151197 C9.61092122,29.1292986 9.15512687,30.6747957 8.77241074,33.1516109" id="Path-4"></path>
                <path d="M67.4412895,66.3596097 C64.3274493,63.48407 62.2487279,60.9281314 61.2051253,58.6917937 C60.1615226,56.4554561 59.0436831,51.2487134 57.8516068,43.0715655 C57.6347457,39.3439091 57.6347457,36.7933357 57.8516068,35.4198454 C58.0684678,34.0463551 58.6692367,31.7059889 59.6539135,28.3987469 C60.6880547,26.5650692 61.4372106,24.99273 61.9013811,23.6817294 C62.3655517,22.3707288 61.8352216,19.4611688 60.3103907,14.9530492 C59.4811368,13.3107288 58.6615422,11.8215385 57.8516068,10.4854783 C57.0416714,9.14941809 55.6105346,7.4659408 53.5581964,5.43504643 C51.5148999,3.76040916 49.5318475,2.46455308 47.609039,1.5474782 C45.6862305,0.630403322 43.7702513,0.116012118 41.8611014,0.00430459302 C39.4085359,-0.0470369661 37.2140806,0.360890624 35.2777355,1.22808736 C33.3413904,2.0952841 31.4855398,3.49760379 29.7101835,5.43504643 C28.1315967,7.28004663 27.1001034,9.19706159 26.6157035,11.1860913 C26.1313037,13.175121 25.8773003,14.9915886 25.8536935,16.6354941 C25.8773003,19.6685259 26.1313037,21.8112128 26.6157035,23.0635549 C27.1001034,24.3158971 28.1315967,25.9802904 29.7101835,28.056735 C31.5784267,29.5434918 33.0789359,30.3579867 34.2117112,30.5002194 C35.3444865,30.6424521 37.4130629,29.9419613 40.4174402,28.3987469 C41.7815458,27.2276525 42.5590059,25.9556496 42.7498206,24.5827382 C42.9406353,23.2098267 42.859396,22.076358 42.5061026,21.1823319 C42.3124437,20.5311112 41.8906747,19.8547684 41.2407954,19.1533037 C40.5909161,18.451839 39.7643902,17.8597647 38.7612176,17.3770809 C37.2319377,16.5441927 36.1912477,16.434838 35.6391478,17.0490169 C35.0870479,17.6631958 34.9665771,18.8733452 35.2777355,20.6794651" id="Path-4" transform="translate(46.647492, 33.179805) scale(-1, 1) translate(-46.647492, -33.179805) "></path>
            </g>
        </g>
    </g>
</svg>